<svg width="520" height="513" viewBox="0 0 520 513" fill="none" xmlns="http://www.w3.org/2000/svg">
<path d="M276 106C305.271 106 329 82.2711 329 53C329 23.7289 305.271 0 276 0C246.729 0 223 23.7289 223 53C223 82.2711 246.729 106 276 106Z" fill="#F2F2F2"/>
<path d="M276 14C277.657 14 279 12.6569 279 11C279 9.34315 277.657 8 276 8C274.343 8 273 9.34315 273 11C273 12.6569 274.343 14 276 14Z" fill="black" fill-opacity="0.1"/>
<path d="M234 56C235.657 56 237 54.6569 237 53C237 51.3431 235.657 50 234 50C232.343 50 231 51.3431 231 53C231 54.6569 232.343 56 234 56Z" fill="black" fill-opacity="0.1"/>
<path d="M318 56C319.657 56 321 54.6569 321 53C321 51.3431 319.657 50 318 50C316.343 50 315 51.3431 315 53C315 54.6569 316.343 56 318 56Z" fill="black" fill-opacity="0.1"/>
<path d="M276 98C277.657 98 279 96.6569 279 95C279 93.3431 277.657 92 276 92C274.343 92 273 93.3431 273 95C273 96.6569 274.343 98 276 98Z" fill="black" fill-opacity="0.1"/>
<path fill-rule="evenodd" clip-rule="evenodd" d="M276 17L278 52H274L276 17Z" fill="#AFB9C5"/>
<path fill-rule="evenodd" clip-rule="evenodd" d="M293.699 70.6985L275.314 55.1422L278.142 52.3137L293.699 70.6985Z" fill="#AFB9C5"/>
<path d="M276 57C278.209 57 280 55.2091 280 53C280 50.7909 278.209 49 276 49C273.791 49 272 50.7909 272 53C272 55.2091 273.791 57 276 57Z" fill="#C5CFD6"/>
<path fill-rule="evenodd" clip-rule="evenodd" d="M28.6259 224H234.374C250.184 224 263 237.749 263 254.71V431.29C263 448.251 250.184 462 234.374 462H28.6259C12.8162 462 0 448.251 0 431.29V254.71C0 237.749 12.8162 224 28.6259 224ZM57.2517 277.742C53.2993 277.742 50.0952 281.179 50.0952 285.419V400.581C50.0952 404.821 53.2993 408.258 57.2517 408.258H205.748C209.701 408.258 212.905 404.821 212.905 400.581V285.419C212.905 281.179 209.701 277.742 205.748 277.742H57.2517Z" fill="#C5CFD6"/>
<path fill-rule="evenodd" clip-rule="evenodd" d="M440.738 223.49C445.346 218.081 448.464 211.453 447.943 204.025C446.442 182.625 416.651 187.333 410.857 198.134C405.062 208.935 405.75 236.333 413.24 238.263C416.226 239.033 422.589 237.147 429.065 233.244L425 262H449L440.738 223.49Z" fill="#CBB09A"/>
<path fill-rule="evenodd" clip-rule="evenodd" d="M458.407 196.902C459.182 196.134 459.605 195.037 459.97 193.996C460.35 192.914 460.719 191.822 460.972 190.696C461.475 188.447 461.48 185.86 459.876 184.114C458.589 182.713 456.658 182.085 454.876 181.948C453.689 181.857 452.469 182.024 451.331 182.398C450.202 182.769 449.229 183.509 448.134 183.968C448.092 181.544 447.677 179.008 446.447 176.938C445.264 174.947 443.378 173.829 441.229 173.534C439.024 173.23 436.846 173.746 434.872 174.814C434.378 175.081 433.888 175.361 433.419 175.678C433.027 175.944 432.619 176.264 432.159 176.372C431.645 176.492 431.391 176.196 431.058 175.821C430.666 175.382 430.226 174.996 429.76 174.653C427.698 173.137 424.993 172.514 422.604 173.423C421.504 173.841 420.433 174.552 419.687 175.531C419.021 176.404 418.546 177.789 417.628 178.398C417.238 178.656 416.963 178.314 416.608 178.061C416.075 177.681 415.566 177.262 415.027 176.892C414.269 176.373 413.448 175.985 412.57 175.781C411.283 175.484 409.506 175.553 409.138 177.238C409 177.871 409.106 178.548 409.15 179.186C409.211 180.061 409.275 180.936 409.351 181.811C409.409 182.474 409.482 183.115 409.607 183.767C409.674 184.115 409.883 184.763 409.734 185.111C409.548 185.546 408.689 185.298 408.321 185.313C407.596 185.343 406.868 185.47 406.197 185.78C405.678 186.021 405.131 186.374 404.912 186.969C404.777 187.335 404.813 187.711 404.876 188.088C404.953 188.539 404.865 188.779 404.808 189.235C403.834 188.755 400.459 187.69 400.035 189.435C399.893 190.016 400.215 190.673 400.461 191.163C400.892 192.023 401.457 192.809 402.034 193.558C403.239 195.121 404.677 196.47 406.224 197.623C404.411 198.429 403.938 200.806 405.507 202.222C406.2 202.848 407.132 202.987 408.006 202.947C408.326 202.932 408.787 202.809 409.039 202.865C409.175 202.895 409.32 203.01 409.507 203.022C410.741 203.107 412.134 202.81 413.34 202.536C415.488 202.048 417.523 201.03 419.184 199.48C419.61 199.082 419.962 198.853 420.536 198.859C421.038 198.864 421.532 199.002 422.034 199.015C423.362 199.048 424.56 198.399 425.794 197.967C425.87 199.633 426.345 201.469 427.026 202.969C427.582 204.191 428.743 204.369 429.884 204.476C433.533 204.82 437.194 204.437 440.848 204.442C437.311 205.241 433.657 205.571 430.152 206.511C428.568 206.936 429.778 208.004 430.455 208.744C431.57 209.963 432.4 211.474 432.975 213.065C434.705 210.81 437.763 209.324 440.472 210.017C443.465 210.782 445.573 214.83 443.659 217.74C442.547 219.429 440.541 220.081 438.871 220.807C440.173 222.161 440.489 224.161 441.273 225.846C441.659 226.677 442.202 227.617 443.067 227.906C443.387 228.013 443.762 228.022 444.014 228.283C444.327 228.606 444.401 228.967 444.801 229.245C446.394 230.352 448.883 230.267 450.295 228.821C451.572 227.514 451.24 225.445 450.173 224.12C451.871 223.412 454.964 222.502 454.289 219.857C457.968 219.613 466.9 213.646 461.963 209.286C464.673 207.755 467.162 204.012 465.422 200.713C464.081 198.172 460.964 197.036 458.407 196.902Z" fill="#191847"/>
<path fill-rule="evenodd" clip-rule="evenodd" d="M492.377 387H415.123L405 511H520L492.377 387Z" fill="#C5CFD6"/>
<path fill-rule="evenodd" clip-rule="evenodd" d="M492.377 387H468.617L454.396 511H520L492.377 387Z" fill="black" fill-opacity="0.1"/>
<path fill-rule="evenodd" clip-rule="evenodd" d="M327.047 365.756C318.81 360.81 304.99 367.165 305 374.238C305.028 395.403 324.343 495.151 325.352 501.457C326.36 507.762 337.163 509.428 337.792 501.477C338.793 488.827 340.653 445.033 338.792 424.763C338.024 416.395 337.197 408.427 336.383 401.318C346.518 419.621 362.193 445.826 383.407 479.934L394.923 474.672C385.88 444.876 378.464 423.841 372.676 411.566C362.767 390.55 353.475 372.552 349.564 366.212C343.412 356.24 332.704 359.719 327.047 365.756Z" fill="#CBB09A"/>
<path fill-rule="evenodd" clip-rule="evenodd" d="M394.1 458.125L354.573 364.487C345.103 349.255 318.554 367.587 321.783 376.422C329.115 396.479 366.4 461.414 368.585 467.39L394.1 458.125Z" fill="#003174"/>
<path fill-rule="evenodd" clip-rule="evenodd" d="M396.67 468.6C399.063 470.524 400.611 472.105 401.312 473.343C402.166 474.85 403.148 477.202 404.259 480.399C402.427 481.468 385.966 491.073 354.875 509.214C351.299 505.915 350.802 503.297 353.384 501.361C355.966 499.425 358.098 497.793 359.779 496.466L377.202 473.309C377.537 472.864 378.162 472.751 378.597 473.058C378.605 473.063 378.612 473.068 378.62 473.074L382.029 475.628C385.234 475.274 387.637 474.63 389.237 473.696C390.537 472.937 392.049 471.389 393.773 469.05L393.773 469.05C394.434 468.152 395.682 467.914 396.56 468.518C396.598 468.544 396.635 468.571 396.67 468.6Z" fill="#E4E4E4"/>
<path fill-rule="evenodd" clip-rule="evenodd" d="M340.322 496.402C341.441 499.388 342 501.623 342 503.106C342 504.909 341.7 507.54 341.099 511C339.007 511 320.206 511 284.697 511C283.231 506.154 284.077 503.539 287.235 503.152C290.393 502.766 293.016 502.417 295.105 502.106L321.32 490.419C321.824 490.194 322.416 490.421 322.641 490.925C322.644 490.934 322.648 490.942 322.652 490.951L324.337 495.039C327.26 496.403 329.636 497.085 331.463 497.085C332.948 497.085 334.999 496.485 337.616 495.285L337.616 495.285C338.62 494.825 339.807 495.266 340.267 496.27C340.287 496.313 340.305 496.357 340.322 496.402Z" fill="#E4E4E4"/>
<path fill-rule="evenodd" clip-rule="evenodd" d="M302.23 381.433C302.23 408 314.846 469.97 314.854 475.82L342 475.841C338.027 420.545 336.618 392.6 337.773 392.004C339.507 391.111 408.824 398.925 429.614 398.925C459.592 398.925 471.994 380.02 473 345H413.614C401.522 346.294 338.451 359.015 315.028 363.388C305 365.261 302.23 374.115 302.23 381.433Z" fill="#3F7FC2"/>
<path fill-rule="evenodd" clip-rule="evenodd" d="M404.362 282.7L369.652 263.69C363.88 256.836 358.193 251.512 352.591 247.72C350.879 247.005 347.886 246.573 350.685 251.542C353.485 256.51 356.206 261.863 354.78 263.394C353.353 264.924 349.797 262.786 348.095 265.329C346.961 267.025 353.037 269.704 366.323 273.365L391.544 296.458L404.362 282.7ZM350 298.74L334.753 290.364C332.614 282.224 330.057 278.128 327.082 278.077C324.796 277.014 328.776 287.3 324.443 286.408C320.111 285.516 309.536 277.651 307.713 279.248C305.018 281.61 307.421 288.864 310.253 292.473C315.547 299.218 319.929 301.524 330.761 304.544C336.425 306.123 342.548 309.289 349.132 314.04L350 298.74Z" fill="#CBB09A"/>
<path fill-rule="evenodd" clip-rule="evenodd" d="M421.266 278.465C409.108 278.337 392.896 275.769 375.598 264.789L368.804 279.939C380.736 291.78 397.514 301.51 412.184 301.098C423.745 300.773 429.653 286.789 421.266 278.465Z" fill="#00214E"/>
<path fill-rule="evenodd" clip-rule="evenodd" d="M404.896 302.761C391.989 305.98 370.345 302.184 339.964 291.373C332.428 306.964 328.945 318.078 329.513 324.717C355.576 338.331 377.913 344.401 396.317 344.802C395.732 355.721 397.061 366.112 401.526 375.606C410.705 395.124 464.455 377.048 482.527 380.606C493.845 343.851 471.962 328.914 471.944 305.397C471.925 279.642 451.246 240 448.203 240H420.456C418.925 259.669 411.22 281.346 404.896 302.761Z" fill="#003174"/>
</svg>
