<svg width="394" height="425" fill="none" xmlns="http://www.w3.org/2000/svg">
  <path fill-rule="evenodd" clip-rule="evenodd" d="M121.975 35.105c4.243-4.98 7.114-11.084 6.634-17.922-1.382-19.705-28.811-15.37-34.147-5.425-5.335 9.945-4.701 35.172 2.194 36.949 2.75.709 8.609-1.028 14.571-4.621l-3.742 26.476h22.098l-7.608-35.457Z" fill="#CBB09A"/>
  <path fill-rule="evenodd" clip-rule="evenodd" d="M104.208 13.2c2.998 1.677 5.133 4.82 7.702 8.944a5.524 5.524 0 0 1 5.88 9.096 83.849 83.849 0 0 0 4.352 5.633c6.126-3.675 10.683-14.387 4.834-24.728C121.943-8.57 93.426 4.288 87.94.795c-1.2 7.516 2.669 13.577 16.268 12.405Z" fill="#1E1E1E"/>
  <path fill-rule="evenodd" clip-rule="evenodd" d="M130.472 150.496 85.28 264.878l-30.31 96.699H43.001L89.34 150.496h41.133Z" fill="#CBB09A"/>
  <path fill-rule="evenodd" clip-rule="evenodd" d="M139.573 150.496c.481 40.195 7.499 94.31 8.62 96.815.748 1.671 26.553 22.912 77.415 63.724l-8.244 8.822c-60.013-34.991-91.407-54.821-94.185-59.488-4.165-7-17.727-71.42-28.615-109.873h45.009Z" fill="#CBB09A"/>
  <path fill-rule="evenodd" clip-rule="evenodd" d="M226.471 308.156c2.813 1.018 4.755 1.975 5.826 2.87 1.303 1.089 3.028 2.888 5.175 5.398l-33.037 39.544c-4.359-1.898-5.753-4.07-4.183-6.518a278.179 278.179 0 0 0 3.854-6.149l6.912-25.435a.903.903 0 0 1 1.164-.612l3.941 1.286c2.697-1.226 4.581-2.48 5.652-3.761.87-1.042 1.638-2.841 2.304-5.4.255-.982 1.269-1.548 2.264-1.265.043.013.086.026.128.042ZM59.871 357.113c1.03 2.75 1.545 4.808 1.545 6.173 0 1.66-.276 4.083-.83 7.268H8.656c-1.35-4.461-.57-6.87 2.337-7.225 2.908-.356 5.323-.677 7.246-.964l24.138-10.761a.921.921 0 0 1 1.226.49l1.551 3.764c2.692 1.256 4.88 1.884 6.562 1.884 1.367 0 3.255-.552 5.664-1.657a1.841 1.841 0 0 1 2.492 1.028Z" fill="#E4E4E4"/>
  <path fill-rule="evenodd" clip-rule="evenodd" d="m100.087 351.617-56.906-6.176 42.175-194.945h50.968l-36.237 201.121Z" fill="#3F7FC2"/>
  <path fill-rule="evenodd" clip-rule="evenodd" d="m213.837 296.803-37.327 44.183c-39.316-42.94-62.237-70.959-68.764-84.055-6.526-13.097-12.394-48.575-17.601-106.435h57.381c2.845 50.903 4.763 77.538 5.753 79.907.99 2.369 21.176 24.502 60.558 66.4Z" fill="#7DA0D4"/>
  <path fill-rule="evenodd" clip-rule="evenodd" d="m47.399 139.367-27.06 26.227c-7.873 3.337-14.325 7.022-19.353 11.054-1.131 1.355-2.362 3.952 2.958 2.79 5.321-1.162 10.97-2.147 11.97-.427 1 1.719-1.946 4.353-.098 6.603 1.232 1.5 5.376-3.271 12.432-14.314l28.138-16.482-8.987-15.451ZM179.72 115.63l-20.917.078c15.931 51.282 24.388 78.132 25.371 80.551 2.21 5.443-2.468 13.732-4.468 18.186 6.515 2.896 5.821-7.83 14.039-4.031 7.501 3.467 13.207 9.75 21.874 4.437 1.065-.654 2.233-3.113-.588-5.035-7.029-4.788-17.157-13.168-18.525-15.927-1.867-3.761-7.462-29.848-16.786-78.259Z" fill="#CBB09A"/>
  <path fill-rule="evenodd" clip-rule="evenodd" d="m115.982 56.675-8.26-1.408c-13.012 45.7-79.867 76.851-83.971 93.935-1.505 6.265 3.033 9.432.689 11.34l10.736 7.809c1.818-2.108 5.698 1.748 13.8-.949 8.103-2.697 67.006-56.615 67.006-110.727Z" fill="#DA291C"/>
  <path fill-rule="evenodd" clip-rule="evenodd" d="M102.088 62.75c.952 60.504-34.25 75.937-26.409 100.209 6.475 20.042 68.452 41.588 79.177 21.942 4.341-7.953 6.31-17.571 6.534-28.029 2.741 8.034 4.909 14.95 6.503 20.749 2.751 10.003 13.416 11.593 13.416 15.447l14.052-3.854c-.954-5.235 5.671-7.784 3.894-19.48-7.957-52.406-29.339-90.393-64.143-113.962l-.369-5.229a3.692 3.692 0 0 0-3.932-3.419l-26.004 1.807a3.678 3.678 0 0 0-3.419 3.926c0 .001 0 .002.004.003l.696 9.89Z" fill="#ED1C24"/>
  <path fill-rule="evenodd" clip-rule="evenodd" d="M281.638 102.042c-4.12-4.837-6.909-10.764-6.443-17.405 1.343-19.136 27.981-14.927 33.162-5.268 5.182 9.658 4.566 34.156-2.13 35.883-2.671.688-8.36-.998-14.151-4.488l3.635 25.712H274.25l7.388-34.434Z" fill="#CBB09A"/>
  <path fill-rule="evenodd" clip-rule="evenodd" d="M317.864 65.98c-.444-1.562-1.639-2.9-3.25-3.297a4.281 4.281 0 0 0-1.196-.118c-.144.005-.185.047-.252-.054-.05-.075-.051-.257-.072-.345a6.474 6.474 0 0 0-.243-.806c-.337-.896-.903-1.69-1.586-2.358-1.277-1.25-3.003-2.113-4.796-2.269-.981-.085-1.955.075-2.883.394-.48.165-.946.37-1.4.598-.136.069-.579.404-.716.382-.152-.024-.456-.4-.579-.494-1.521-1.167-3.4-1.626-5.295-1.613-2.139.016-4.198.123-5.982 1.427a11.834 11.834 0 0 0-1.602 1.42c-.1.108-.198.22-.292.335-.16.194-.134.258-.358.122-.859-.521-1.853-.765-2.855-.642a6.398 6.398 0 0 0-1.724.487c-.187.08-.62.4-.82.402-.198.003-.625-.293-.829-.368a6.793 6.793 0 0 0-3.444-.319 8.893 8.893 0 0 0-3.378 1.329c-.486.316-.911.667-1.252 1.138-.147.203-.28.418-.447.606-.098.11-.291.224-.343.364.031-.084-1.306-.6-1.432-.632a3.525 3.525 0 0 0-2.014.076c-1.238.408-2.302 1.32-3.177 2.257a9.043 9.043 0 0 0-1.176 1.579c-.16.271-.306.55-.44.835-.065.138-.107.311-.193.435-.11.16-.184.164-.383.234a6.195 6.195 0 0 0-2.639 1.767 6.07 6.07 0 0 0-1.366 2.896c-.012.063-.019.323-.055.357-.051.046-.254.026-.331.035a6.938 6.938 0 0 0-.793.14 6.559 6.559 0 0 0-1.395.501c-1.729.856-2.966 2.46-3.571 4.265-.635 1.894-.624 4.064.135 5.923.123.3.269.592.44.868.105.169.139.17.071.347-.076.197-.216.39-.306.582a8.398 8.398 0 0 0-.632 1.98c-.213 1.12-.319 2.296-.108 3.424a4.95 4.95 0 0 0 .528 1.502 4.287 4.287 0 0 0 .752.983c.058.057.134.106.183.17.12.154.145.027.084.253-.087.317-.283.63-.403.937-.124.318-.236.64-.338.965a14.044 14.044 0 0 0-.492 2.009c-.211 1.308-.174 2.703.445 3.903.265.514.644.965 1.105 1.315.225.172.469.319.725.441.132.062.3.089.36.216.064.137-.032.409-.053.562-.191 1.33-.286 2.728.11 4.032a5.567 5.567 0 0 0 2.208 2.964c2.02 1.362 4.744 1.285 6.867.195a7.263 7.263 0 0 0 1.533-1.054c1.176 1.583 3.596 1.533 5.315 1.082 2.141-.562 3.859-2.051 4.849-4.007 1.354 1.648 4.195 1.113 5.134-.675a4.29 4.29 0 0 0 .433-1.408c.035-.256.013-.515.039-.77.034-.324.251-.639.375-.953.243-.611.393-1.242.4-1.9.003-.344-.04-.68-.073-1.02-.029-.308.056-.594.104-.897-.549.09-1.218-.058-1.736-.217-.507-.156-.983-.568-1.341-.944-.833-.873-1.341-2.017-1.689-3.156-.763-2.499-.45-5.498 2.064-6.87 1.171-.639 4.68-.636 6.075-.32 1.466.331 3.129 3.568 3.211 3.872.051.188.025.421.198.547.38.275 1.007-.203 1.287-.44.484-.407.829-.95 1.128-1.5a18.578 18.578 0 0 0 1.547-3.794c.286-1.01.469-2.053.842-3.039.372-.98.958-1.856 1.87-2.412.991-.604 2.128-.922 3.216-1.302 1.079-.376 2.139-.836 2.975-1.635.184-.175.363-.362.511-.568.117-.164.232-.476.41-.58.277-.16.681.258.92.41 1.181.75 2.166 1.796 2.96 2.938.79 1.137 1.439 2.23 1.965 3.499.391.94.635 2.146 1.322 2.917.307.344 2.588.553 3.327.252.738-.3 1.566-1.081 1.814-1.57.254-.501.315-1.051.206-1.6-.064-.322-.194-.623-.265-.94-.06-.266-.115-.517-.244-.761a1.88 1.88 0 0 0-1.171-.933 5.473 5.473 0 0 0 1.264-1.714c.314-.674.58-1.494.655-2.234.061-.601-.033-1.224-.362-1.74-.345-.542-.957-.895-1.486-1.233a9.653 9.653 0 0 0 2.068-2.253c1.106-1.655 1.79-3.742 1.228-5.715Z" fill="#1E1E1E"/>
  <path fill-rule="evenodd" clip-rule="evenodd" d="m267.164 210.472 42.993 113.763 30.135 83.85h17.184l-41.424-197.613h-48.888Z" fill="#A1A3A2"/>
  <path fill-rule="evenodd" clip-rule="evenodd" d="M256.538 210.472c-.467 39.035-.129 91.588-1.218 94.022-.726 1.622-23.306 20.104-67.738 55.446l8.857 15.061c52.751-34.019 80.476-53.294 83.173-57.826 4.045-6.799 24.369-69.359 34.943-106.703h-58.017Z" fill="#D3D1D1"/>
  <path fill-rule="evenodd" clip-rule="evenodd" d="m172 370.319 15.306-11.633 11.949 14.301c.753 10.885 4.173 23.061 10.26 36.527l-2.807 2.345-21.621-25.877-5.994-10.026-1.403 1.173-5.69-6.81ZM338.698 424.18l.894-18.778h18.778c8.904 6.259 20.528 11.326 34.873 15.201v3.577h-33.979l-11.624-1.789v1.789h-8.942Z" fill="#1E1E1E"/>
  <path fill-rule="evenodd" clip-rule="evenodd" d="m342.955 199.161 28.523 20.945c7.736 2.087 14.199 4.684 19.389 7.791 1.227 1.117 2.708 3.38-2.376 2.989-5.085-.391-10.451-.574-11.153 1.16-.701 1.735 2.376 3.809.958 6.149-.946 1.56-5.413-2.352-13.401-11.735l-28.245-11.713 6.305-15.586Zm-109.513.723 18.686.073c-11.537 37.246-17.766 57.008-18.686 59.287-2.069 5.128 2.31 12.937 4.182 17.134-6.098 2.729-5.448-7.377-13.141-3.798-7.022 3.267-12.363 9.186-20.476 4.18-.997-.615-2.09-2.932.551-4.743 6.579-4.511 16.06-12.407 17.341-15.006 1.747-3.544 5.595-22.586 11.543-57.127Z" fill="#CBB09A"/>
  <path fill-rule="evenodd" clip-rule="evenodd" d="m286.545 121.475 7.732-1.326c28.689 24.783 40.472 72.393 75.637 97.614l-8.464 10.491c-61.005-7.553-76.125-65.626-74.905-106.779Z" fill="#00214E"/>
  <path fill-rule="evenodd" clip-rule="evenodd" d="M252.839 218.644h68.415c3.126 0 2.537-4.514 2.085-6.792-5.216-26.289-25.575-54.628-25.575-92.05l-19.735-3.094c-16.322 26.251-21.967 58.572-25.19 101.936Z" fill="#DDE3E9"/>
  <path fill-rule="evenodd" clip-rule="evenodd" d="M253.389 142.511c-2.866-.823-5.136-2.745-6.809-5.764-7.213-13.015-4.608-20.181 3.1-22.536 7.709-2.355 14.583 2.496 26.864 2.496.668 0 1.28.042 1.835.126l6.178.352c17.725 60.072 22.613 100.15 14.665 120.236h-53.847c-3.191 7.44-6.244 13.699-9.159 18.778h-14.673c-1.381-44.649 9.234-82.545 31.846-113.688Z" fill="#003174"/>
  <path fill-rule="evenodd" clip-rule="evenodd" d="M257.1 206.57c1.693 14.17 4.446 24.453 8.257 30.851h-19.983c3.722-8.678 7.63-18.961 11.726-30.851Z" fill="#000" fill-opacity=".1"/>
</svg>