<svg width="618" height="520" viewBox="0 0 618 520" fill="none" xmlns="http://www.w3.org/2000/svg">
<path fill-rule="evenodd" clip-rule="evenodd" d="M609.226 100.121C608.792 99.7956 607.762 99.6802 607.282 99.5827C605.289 99.1779 603.237 99.0017 601.205 99.0017C594.94 99.0114 588.574 99.645 582.414 100.742C578.503 101.438 573.774 103.78 569.883 102.508C563.105 100.291 556.254 100.4 549.823 103.565C543.943 106.459 539.48 111.955 536.875 117.894C536.482 118.79 534.888 122.09 534.436 124.314C534.243 124.769 534.058 125.227 533.891 125.691C533.416 127.011 532.991 128.354 532.596 129.699C532.427 130.273 532.002 131.54 532.507 131.785C531.701 133.317 530.987 134.897 530.391 136.527C528.661 141.269 526.769 146.47 526.161 151.496C525.936 153.357 525.927 155.229 526.137 157.093C526.24 158.015 526.197 159.868 526.804 160.569C528.09 162.056 528.751 159.974 528.606 158.983C527.498 151.426 529.638 144.33 532.173 137.227C533.812 132.634 536.506 128.432 539.524 124.627C541.966 121.547 544.586 119.121 547.933 117.078C552.027 114.581 556.404 112.562 560.741 110.537C563.593 109.204 566.448 107.908 569.38 106.76C570.032 106.504 571.058 105.849 571.78 105.847C573.309 105.841 575.475 107.003 576.952 107.436C581.808 108.858 586.727 110.68 591.746 111.406C594.965 111.873 597.982 111.348 600.992 110.242C601.3 110.13 601.816 109.84 602.448 109.425C604.683 108.539 606.798 107.424 608.639 105.816C609.7 104.889 610.662 103.691 611.54 102.595C611.803 102.267 611.919 101.891 611.923 101.534C612.122 101.427 612.254 101.302 612.283 101.156C612.502 100.077 610.505 100.057 609.226 100.121Z" fill="#89C5CC"/>
<path fill-rule="evenodd" clip-rule="evenodd" d="M100.337 190.067C99.1078 191.093 97.9024 192.14 96.7264 193.23C95.8302 194.061 94.2441 195.055 93.9224 196.313C93.5879 197.621 94.6438 198.845 95.4779 199.636C99.8889 203.817 104.856 206.644 110.968 207.114C120.379 207.838 128.57 205.362 136.736 200.489C142.471 197.067 146.271 192.004 147.101 185.168C153.932 188.093 160.538 192.125 166.153 197.073C168.923 199.515 171.309 202.22 173.516 205.218C174.929 207.139 176.296 209.091 177.565 211.118C178.117 211.998 178.677 213.56 179.588 214.067C180.657 214.663 181.949 213.729 181.896 212.505C181.852 211.486 180.783 210.303 180.284 209.47C179.455 208.087 178.613 206.712 177.726 205.366C176.291 203.188 174.809 201.04 173.191 199.002C169.557 194.422 164.932 190.638 160.139 187.411C150.942 181.221 140.849 177.321 129.659 176.991C122.778 176.788 116.99 179.21 111.106 182.827C107.443 185.079 103.661 187.294 100.337 190.067Z" fill="#DDE3E9"/>
<path fill-rule="evenodd" clip-rule="evenodd" d="M189.591 160.128C182.42 152.519 175.225 145.006 167.214 138.306C162.493 134.358 157.517 130.768 152.644 127.025C153.207 127.533 153.758 128.055 154.296 128.59C152.775 127.526 150.784 126.925 149.171 125.94C147.373 124.841 145.653 123.585 143.967 122.318C140.675 119.847 137.432 117.328 134.048 114.986C130.278 112.376 126.371 109.964 122.536 107.453C119.282 105.321 115.988 102.988 112.506 101.246C110.609 100.296 108.707 99.1701 106.802 98.1795C106.164 97.8481 99.6942 93.6386 99.7105 93.626C100.068 93.3483 103.324 94.9246 103.827 95.1366C105.298 95.7556 106.705 96.496 108.119 97.2341C107.343 95.6567 106.728 93.9993 106.394 92.2548C106.291 91.7163 105.463 87.7964 105.886 87.4675C106.098 87.3032 108.162 94.3166 108.268 94.991C108.354 95.5387 108.341 96.3274 108.515 96.846C108.796 97.6837 108.782 97.4307 109.401 97.9026C110.535 98.7675 112.041 99.3079 113.269 100.031C113.931 100.412 115.98 101.922 117.215 102.352C120.951 104.222 124.737 107.098 128.286 109.485C127.355 107.681 126.646 105.795 126.129 103.819C126.006 103.35 124.679 99.1399 125.001 98.89C125.363 98.6088 127.891 105.038 128.041 105.647C128.319 106.777 128.377 108.036 128.725 109.136C129.107 110.343 130.3 110.771 131.375 111.475C135.33 114.064 139.149 116.816 142.905 119.693C147.003 112.184 142.278 103.115 138.296 96.8144C135.425 92.2734 131.561 88.3801 127.481 84.9813C122.035 80.4451 115.805 76.8213 109.582 73.5065C102.331 69.6442 94.4947 67.2511 86.3474 66.1456C82.0863 65.5673 77.7269 65.5834 73.4227 65.7689C71.32 65.8593 69.3019 66.1463 67.2869 66.8528C66.3787 67.1716 65.501 67.5734 64.6457 68.0233C63.9958 68.3652 62.4237 68.726 62.0501 69.2353C58.9743 73.3602 57.4007 77.4705 57.641 82.6538C57.8683 87.5604 59.3722 92.4696 61.4133 96.8462C63.6864 101.72 66.6099 106.143 70.4333 109.855C73.3504 112.688 76.6117 115.153 79.8515 117.586C91.3746 126.238 105.984 133.764 120.908 131.83C125.739 131.205 130.334 129.464 134.628 127.099C135.64 126.541 136.646 125.977 137.601 125.319C138.245 124.876 139.966 122.876 140.614 122.804C141.502 122.704 143.414 124.565 144.247 125.131C150.577 129.437 156.741 133.975 162.776 138.697C169.197 143.722 175.303 149.087 181.229 154.706C183.75 157.095 186.254 159.49 188.702 161.96C189.271 162.535 190.664 164.651 191.698 164.747C192.351 164.808 192.791 164.233 192.698 163.61C192.536 162.527 190.325 160.906 189.591 160.128Z" fill="#C1DEE2"/>
<path fill-rule="evenodd" clip-rule="evenodd" d="M601.698 130.598C598.921 129.973 595.854 130.021 593.025 130.072C577.852 130.285 562.952 137.687 553.255 149.513C545 159.582 542.73 172.099 541.099 184.753C540.937 186.01 540.868 187.258 540.777 188.517C540.757 188.787 540.728 189.028 540.697 189.255C540.055 189.846 539.719 190.535 540.099 191.291C538.686 194.477 537.49 197.744 536.465 201.113C533.446 211.03 530.376 221.135 532.267 231.563C532.709 225.825 533.639 219.957 534.75 214.312C534.814 213.988 534.883 213.667 534.955 213.346C534.963 213.312 534.97 213.279 534.977 213.245C535.371 211.517 535.882 209.84 536.504 208.19C536.511 208.171 536.517 208.154 536.524 208.136C536.606 207.919 536.693 207.703 536.779 207.487C536.957 207.039 537.14 206.593 537.334 206.149C537.4 205.998 537.463 205.845 537.524 205.691C538.429 203.404 538.812 200.827 539.623 198.461C539.817 197.923 540.02 197.387 540.233 196.853C540.245 196.822 540.258 196.791 540.271 196.76C540.845 195.325 541.48 193.907 542.151 192.505C542.516 192.222 542.711 191.522 543.026 190.885C543.091 190.759 543.6 189.922 543.751 189.44C544.146 188.652 544.54 187.864 544.938 187.077C544.926 187.082 544.914 187.087 544.903 187.091C545.301 186.336 545.7 185.584 546.097 184.835C546.184 184.67 546.272 184.506 546.36 184.341C546.502 184.078 546.645 183.815 546.787 183.553C548.116 181.103 549.525 178.701 550.989 176.33C551.511 175.483 552.759 174.269 552.998 173.319C553.007 173.284 553.009 173.251 553.014 173.217C556.19 168.621 559.846 164.383 564.23 161.024C563.7 161.614 562.573 163.617 562.276 164.014C561.364 165.228 560.375 166.358 559.382 167.502C557.603 169.552 555.866 171.666 554.323 173.902C551.502 177.992 549.067 182.295 546.766 186.685C546.744 186.711 546.72 186.735 546.699 186.762C545.543 188.231 544.815 190.451 543.982 192.131C547.277 190.559 550.92 189.535 554.302 188.138C557.674 186.746 560.955 185.196 564.122 183.376C568.331 180.957 572.698 178.226 576.675 175.135C581.233 172.222 585.063 168.212 588.444 164.005C592.444 159.026 596.11 154.005 598.377 147.96C599.49 144.989 600.366 141.892 600.886 138.759C600.909 138.622 600.938 138.474 600.969 138.32C601.501 137.238 601.976 136.131 602.374 134.999C603.008 133.204 604.503 131.229 601.698 130.598Z" fill="#69A1AC"/>
<path fill-rule="evenodd" clip-rule="evenodd" d="M131.064 151.631C130.194 150.66 129.217 149.785 128.069 149.16C127.779 149.002 125.618 147.944 125.478 148.177C125.15 148.717 130.803 151.321 131.064 151.631ZM141.309 145.147C141.302 145.188 142.051 146.498 142.255 146.9C142.689 147.757 143.09 148.63 143.467 149.504C142.909 147.959 142.335 146.527 141.309 145.147ZM88.9139 155.81C88.1923 156.049 87.3247 155.105 88.2607 154.873C89.018 154.686 88.9809 154.642 89.3209 154.014C89.5971 153.503 89.7672 152.881 90.0095 152.345C90.5235 151.209 91.1065 150.126 91.8222 149.11C93.3559 146.934 95.2247 145.059 97.3207 143.478C100.978 140.721 105.08 138.2 109.43 136.934C116.348 134.921 124.221 134.796 131.149 136.192C135.44 137.057 139.362 138.56 142.211 142.119C143.635 143.898 144.753 145.982 145.241 148.277C145.369 148.877 145.345 149.544 145.505 150.131C145.75 151.034 145.642 150.794 146.667 150.97C147.786 151.161 148.904 151.357 150.022 151.556C152.949 152.078 155.894 152.632 158.746 153.479C159.685 153.757 160.603 154.098 161.5 154.493C162.178 154.792 164.879 155.731 165.207 156.639C165.754 158.149 163.923 157.465 163.354 157.136C162.856 156.847 162.344 156.578 161.825 156.331C160.519 155.708 159.157 155.226 157.765 154.842C156.26 154.427 154.725 154.118 153.195 153.808C151.769 153.519 150.338 153.256 148.904 153.005C148.108 152.866 147.311 152.73 146.514 152.594C146.241 152.548 145.761 152.305 145.798 152.67C144.122 152.337 142.31 152.385 140.603 152.293C138.512 152.181 136.414 152.089 134.317 152.156C132.804 152.205 131.29 152.307 129.785 152.516C128.905 152.639 128.04 152.818 127.177 153.045C126.703 153.169 124.834 153.433 124.575 153.859C124.686 153.676 126.749 153.854 127.012 153.843C128.062 153.803 129.104 153.695 130.15 153.575C132.092 153.352 134.034 153.235 135.982 153.252C135.975 153.604 134.644 154.232 134.319 154.465C133.591 154.989 132.894 155.56 132.243 156.186C131.097 157.29 129.724 158.657 128.932 159.964C129.165 159.579 130.318 159.077 130.727 158.783C131.382 158.311 132.024 157.808 132.632 157.27C133.192 156.773 133.716 156.237 134.23 155.689C134.745 155.14 135.443 154.001 136.119 153.635C136.16 153.613 136.455 153.853 136.622 153.772C136.791 153.69 137.001 153.279 137.044 153.262C137.674 153.012 138.869 153.323 139.531 153.354C141.247 153.436 142.961 153.542 144.676 153.64C145.207 153.67 145.658 153.545 145.859 153.949C146.073 154.38 145.681 155.511 145.569 155.98C145.156 157.722 144.422 159.284 143.266 160.634C141.101 163.161 138.432 164.847 135.416 165.974C123.866 170.291 111.578 172.02 100.031 167.529C95.2511 165.67 88.0519 162.347 88.9139 155.81Z" fill="#89C5CC"/>
<g opacity="0.6">
<path opacity="0.6" fill-rule="evenodd" clip-rule="evenodd" d="M617.765 359.219C625.622 414.026 435.06 449.774 271.039 424.826C107.018 399.878 31.7728 302.453 110.041 250.542C188.309 198.63 609.907 304.412 617.765 359.219Z" fill="#DDE3E9"/>
</g>
<path d="M282.514 0H166.071C162.474 0 159.557 3.00506 159.557 6.71199V246.665C159.557 250.372 162.474 253.377 166.071 253.377H282.514C286.112 253.377 289.029 250.372 289.029 246.665V6.71199C289.029 3.00506 286.112 0 282.514 0Z" fill="#F2F2F2"/>
<path d="M223.886 237.437C230.631 237.437 236.1 231.802 236.1 224.852C236.1 217.901 230.631 212.267 223.886 212.267C217.14 212.267 211.671 217.901 211.671 224.852C211.671 231.802 217.14 237.437 223.886 237.437Z" fill="white"/>
<path d="M213.3 16.7798C214.199 16.7798 214.929 16.0286 214.929 15.1018C214.929 14.1751 214.199 13.4238 213.3 13.4238C212.401 13.4238 211.671 14.1751 211.671 15.1018C211.671 16.0286 212.401 16.7798 213.3 16.7798Z" fill="white"/>
<path d="M234.471 13.4238H220.629C219.729 13.4238 219 14.1751 219 15.1018C219 16.0286 219.729 16.7798 220.629 16.7798H234.471C235.371 16.7798 236.1 16.0286 236.1 15.1018C236.1 14.1751 235.371 13.4238 234.471 13.4238Z" fill="white"/>
<path d="M274.371 23.4919H174.214C172.415 23.4919 170.957 24.9945 170.957 26.8479V65.4419C170.957 67.2953 172.415 68.7978 174.214 68.7978H274.371C276.17 68.7978 277.628 67.2953 277.628 65.4419V26.8479C277.628 24.9945 276.17 23.4919 274.371 23.4919Z" fill="white"/>
<path d="M259.714 37.0837H205.157C203.808 37.0837 202.714 38.2106 202.714 39.6007V41.3626C202.714 42.7527 203.808 43.8796 205.157 43.8796H259.714C261.063 43.8796 262.157 42.7527 262.157 41.3626V39.6007C262.157 38.2106 261.063 37.0837 259.714 37.0837Z" fill="#DDE3E9"/>
<path d="M240.171 48.4102H205.157C203.808 48.4102 202.714 49.5371 202.714 50.9272V52.689C202.714 54.0791 203.808 55.206 205.157 55.206H240.171C241.52 55.206 242.614 54.0791 242.614 52.689V50.9272C242.614 49.5371 241.52 48.4102 240.171 48.4102Z" fill="#DDE3E9"/>
<path d="M188.057 56.2129C193.454 56.2129 197.829 51.7053 197.829 46.1449C197.829 40.5845 193.454 36.0769 188.057 36.0769C182.66 36.0769 178.286 40.5845 178.286 46.1449C178.286 51.7053 182.66 56.2129 188.057 56.2129Z" fill="#C5CFD6"/>
<path d="M274.371 75.5098H174.214C172.415 75.5098 170.957 77.0123 170.957 78.8658V107.392C170.957 109.245 172.415 110.748 174.214 110.748H274.371C276.17 110.748 277.628 109.245 277.628 107.392V78.8658C277.628 77.0123 276.17 75.5098 274.371 75.5098Z" fill="white"/>
<path d="M259.714 86.0811H205.157C203.808 86.0811 202.714 87.208 202.714 88.598V88.8497C202.714 90.2398 203.808 91.3667 205.157 91.3667H259.714C261.063 91.3667 262.157 90.2398 262.157 88.8497V88.598C262.157 87.208 261.063 86.0811 259.714 86.0811Z" fill="#DDE3E9"/>
<path d="M240.171 94.8906H205.157C203.808 94.8906 202.714 96.0175 202.714 97.4076V97.6593C202.714 99.0494 203.808 100.176 205.157 100.176H240.171C241.52 100.176 242.614 99.0494 242.614 97.6593V97.4076C242.614 96.0175 241.52 94.8906 240.171 94.8906Z" fill="#DDE3E9"/>
<path d="M188.057 103.197C193.454 103.197 197.829 98.6892 197.829 93.1288C197.829 87.5684 193.454 83.0608 188.057 83.0608C182.66 83.0608 178.286 87.5684 178.286 93.1288C178.286 98.6892 182.66 103.197 188.057 103.197Z" fill="#C5CFD6"/>
<path d="M274.371 117.46H174.214C172.415 117.46 170.957 118.962 170.957 120.816V149.342C170.957 151.195 172.415 152.698 174.214 152.698H274.371C276.17 152.698 277.628 151.195 277.628 149.342V120.816C277.628 118.962 276.17 117.46 274.371 117.46Z" fill="white"/>
<path d="M259.714 128.031H205.157C203.808 128.031 202.714 129.158 202.714 130.548V130.8C202.714 132.19 203.808 133.317 205.157 133.317H259.714C261.063 133.317 262.157 132.19 262.157 130.8V130.548C262.157 129.158 261.063 128.031 259.714 128.031Z" fill="#DDE3E9"/>
<path d="M240.171 136.841H205.157C203.808 136.841 202.714 137.967 202.714 139.358V139.609C202.714 140.999 203.808 142.126 205.157 142.126H240.171C241.52 142.126 242.614 140.999 242.614 139.609V139.358C242.614 137.967 241.52 136.841 240.171 136.841Z" fill="#DDE3E9"/>
<path d="M188.057 145.147C193.454 145.147 197.829 140.639 197.829 135.079C197.829 129.518 193.454 125.011 188.057 125.011C182.66 125.011 178.286 129.518 178.286 135.079C178.286 140.639 182.66 145.147 188.057 145.147Z" fill="#AFB9C5"/>
<path d="M274.371 159.41H174.214C172.415 159.41 170.957 160.912 170.957 162.766V191.292C170.957 193.145 172.415 194.648 174.214 194.648H274.371C276.17 194.648 277.628 193.145 277.628 191.292V162.766C277.628 160.912 276.17 159.41 274.371 159.41Z" fill="white"/>
<path d="M259.714 169.981H205.157C203.808 169.981 202.714 171.108 202.714 172.498V172.75C202.714 174.14 203.808 175.267 205.157 175.267H259.714C261.063 175.267 262.157 174.14 262.157 172.75V172.498C262.157 171.108 261.063 169.981 259.714 169.981Z" fill="#DDE3E9"/>
<path d="M240.171 178.791H205.157C203.808 178.791 202.714 179.917 202.714 181.308V181.559C202.714 182.949 203.808 184.076 205.157 184.076H240.171C241.52 184.076 242.614 182.949 242.614 181.559V181.308C242.614 179.917 241.52 178.791 240.171 178.791Z" fill="#DDE3E9"/>
<path d="M188.057 187.097C193.454 187.097 197.829 182.589 197.829 177.029C197.829 171.468 193.454 166.961 188.057 166.961C182.66 166.961 178.286 171.468 178.286 177.029C178.286 182.589 182.66 187.097 188.057 187.097Z" fill="#C5CFD6"/>
<path fill-rule="evenodd" clip-rule="evenodd" d="M184.1 204.716C183.021 204.716 181.945 204.738 180.868 204.796C180.047 204.84 178.792 204.664 178.097 205.192C177.375 205.74 177.424 206.861 177.537 207.653C178.134 211.841 179.589 215.555 182.633 218.522C187.321 223.091 192.695 225.412 199.054 226.446C203.52 227.172 207.644 226.164 210.932 222.891C213.335 227.485 215.157 232.569 216.072 237.701C216.523 240.233 216.661 242.734 216.582 245.313C216.53 246.964 216.442 248.612 216.27 250.255C216.196 250.969 215.842 252.051 216.114 252.725C216.432 253.518 217.506 253.595 217.988 252.919C218.39 252.356 218.316 251.252 218.398 250.586C218.535 249.48 218.661 248.374 218.752 247.263C218.899 245.465 219.008 243.662 219 241.857C218.981 237.802 218.106 233.73 216.909 229.881C214.613 222.496 210.887 215.932 205.093 210.783C201.53 207.616 197.452 206.334 192.825 205.645C189.945 205.217 187.018 204.716 184.1 204.716Z" fill="#89C5CC"/>
<path fill-rule="evenodd" clip-rule="evenodd" d="M200.737 234.081C189.093 234.081 181.251 243.749 177.544 253.798C176.146 257.586 175.818 261.746 175.28 265.723C175.107 266.999 175.171 268.944 174.668 270.081C174.486 270.494 174.067 270.642 174.267 271.204C174.388 271.544 174.626 271.752 174.983 271.82C175.715 271.959 176.751 271.137 177.379 270.813C182.587 268.121 186.009 263.96 188.8 258.869C190.531 255.713 192.286 252.437 193.314 248.973C193.942 246.856 194.308 244.627 194.522 242.432C194.607 241.567 194.689 240.682 194.684 239.812C194.679 238.949 194.289 238.493 194.009 237.742C197.894 236.226 202.279 235.814 206.215 237.384C209.855 238.836 212.878 241.643 214.571 245.168C215.011 246.085 215.35 247.052 215.597 248.038C215.759 248.684 215.767 249.522 216.067 250.106C216.793 251.521 218.323 250.575 218.176 249.257C217.767 245.581 215.726 241.891 213.117 239.335C209.827 236.112 205.367 234.081 200.737 234.081Z" fill="#89C5CC"/>
<path d="M336.257 21.814H219.814C216.217 21.814 213.3 24.819 213.3 28.526V268.479C213.3 272.186 216.217 275.191 219.814 275.191H336.257C339.855 275.191 342.771 272.186 342.771 268.479V28.526C342.771 24.819 339.855 21.814 336.257 21.814Z" fill="#DDE3E9"/>
<path d="M277.629 259.251C284.374 259.251 289.843 253.616 289.843 246.666C289.843 239.715 284.374 234.081 277.629 234.081C270.883 234.081 265.414 239.715 265.414 246.666C265.414 253.616 270.883 259.251 277.629 259.251Z" fill="white"/>
<path d="M267.043 38.5938C267.942 38.5938 268.671 37.8425 268.671 36.9158C268.671 35.9891 267.942 35.2378 267.043 35.2378C266.143 35.2378 265.414 35.9891 265.414 36.9158C265.414 37.8425 266.143 38.5938 267.043 38.5938Z" fill="white"/>
<path d="M288.214 35.2378H274.371C273.472 35.2378 272.743 35.9891 272.743 36.9158C272.743 37.8425 273.472 38.5938 274.371 38.5938H288.214C289.114 38.5938 289.843 37.8425 289.843 36.9158C289.843 35.9891 289.114 35.2378 288.214 35.2378Z" fill="white"/>
<path d="M328.114 45.3059H227.957C226.158 45.3059 224.7 46.8084 224.7 48.6619V87.2558C224.7 89.1093 226.158 90.6118 227.957 90.6118H328.114C329.913 90.6118 331.371 89.1093 331.371 87.2558V48.6619C331.371 46.8084 329.913 45.3059 328.114 45.3059Z" fill="white"/>
<path d="M289.029 58.8977H234.472C233.122 58.8977 232.029 60.0246 232.029 61.4147V63.1766C232.029 64.5667 233.122 65.6936 234.472 65.6936H289.029C290.378 65.6936 291.472 64.5667 291.472 63.1766V61.4147C291.472 60.0246 290.378 58.8977 289.029 58.8977Z" fill="#DDE3E9"/>
<path d="M269.486 70.2241H234.472C233.122 70.2241 232.029 71.351 232.029 72.7411V74.503C232.029 75.8931 233.122 77.02 234.472 77.02H269.486C270.835 77.02 271.929 75.8931 271.929 74.503V72.7411C271.929 71.351 270.835 70.2241 269.486 70.2241Z" fill="#DDE3E9"/>
<path d="M319.971 73.8319C323.12 73.8319 325.671 71.2025 325.671 67.9589C325.671 64.7154 323.12 62.0859 319.971 62.0859C316.823 62.0859 314.271 64.7154 314.271 67.9589C314.271 71.2025 316.823 73.8319 319.971 73.8319Z" fill="#DDE3E9"/>
<path d="M319.971 70.4759C321.321 70.4759 322.414 69.349 322.414 67.9589C322.414 66.5688 321.321 65.4419 319.971 65.4419C318.622 65.4419 317.529 66.5688 317.529 67.9589C317.529 69.349 318.622 70.4759 319.971 70.4759Z" fill="#F2F2F2"/>
<path d="M328.114 97.3237H227.957C226.158 97.3237 224.7 98.8263 224.7 100.68V129.206C224.7 131.059 226.158 132.562 227.957 132.562H328.114C329.913 132.562 331.371 131.059 331.371 129.206V100.68C331.371 98.8263 329.913 97.3237 328.114 97.3237Z" fill="white"/>
<path d="M313.457 107.895H258.9C257.551 107.895 256.457 109.022 256.457 110.412V110.664C256.457 112.054 257.551 113.181 258.9 113.181H313.457C314.806 113.181 315.9 112.054 315.9 110.664V110.412C315.9 109.022 314.806 107.895 313.457 107.895Z" fill="#DDE3E9"/>
<path d="M293.914 116.705H258.9C257.551 116.705 256.457 117.831 256.457 119.222V119.473C256.457 120.863 257.551 121.99 258.9 121.99H293.914C295.263 121.99 296.357 120.863 296.357 119.473V119.222C296.357 117.831 295.263 116.705 293.914 116.705Z" fill="#DDE3E9"/>
<path d="M241.8 125.011C247.197 125.011 251.572 120.503 251.572 114.943C251.572 109.382 247.197 104.875 241.8 104.875C236.404 104.875 232.029 109.382 232.029 114.943C232.029 120.503 236.404 125.011 241.8 125.011Z" fill="#C5CFD6"/>
<path d="M328.114 139.274H227.957C226.158 139.274 224.7 140.776 224.7 142.63V171.156C224.7 173.009 226.158 174.512 227.957 174.512H328.114C329.913 174.512 331.371 173.009 331.371 171.156V142.63C331.371 140.776 329.913 139.274 328.114 139.274Z" fill="white"/>
<path d="M289.029 149.845H234.472C233.122 149.845 232.029 150.972 232.029 152.362V152.614C232.029 154.004 233.122 155.131 234.472 155.131H289.029C290.378 155.131 291.472 154.004 291.472 152.614V152.362C291.472 150.972 290.378 149.845 289.029 149.845Z" fill="#DDE3E9"/>
<path d="M269.486 158.655H234.472C233.122 158.655 232.029 159.781 232.029 161.172V161.423C232.029 162.813 233.122 163.94 234.472 163.94H269.486C270.835 163.94 271.929 162.813 271.929 161.423V161.172C271.929 159.781 270.835 158.655 269.486 158.655Z" fill="#AFB9C5"/>
<path d="M319.971 162.766C323.12 162.766 325.671 160.136 325.671 156.893C325.671 153.649 323.12 151.02 319.971 151.02C316.823 151.02 314.271 153.649 314.271 156.893C314.271 160.136 316.823 162.766 319.971 162.766Z" fill="#DDE3E9"/>
<path d="M319.971 159.409C321.321 159.409 322.414 158.283 322.414 156.892C322.414 155.502 321.321 154.375 319.971 154.375C318.622 154.375 317.529 155.502 317.529 156.892C317.529 158.283 318.622 159.409 319.971 159.409Z" fill="#F2F2F2"/>
<path d="M328.114 181.224H227.957C226.158 181.224 224.7 182.726 224.7 184.58V213.106C224.7 214.959 226.158 216.462 227.957 216.462H328.114C329.913 216.462 331.371 214.959 331.371 213.106V184.58C331.371 182.726 329.913 181.224 328.114 181.224Z" fill="white"/>
<path d="M313.457 191.795H258.9C257.551 191.795 256.457 192.922 256.457 194.312V194.564C256.457 195.954 257.551 197.081 258.9 197.081H313.457C314.806 197.081 315.9 195.954 315.9 194.564V194.312C315.9 192.922 314.806 191.795 313.457 191.795Z" fill="#DDE3E9"/>
<path d="M293.914 200.604H258.9C257.551 200.604 256.457 201.731 256.457 203.121V203.373C256.457 204.763 257.551 205.89 258.9 205.89H293.914C295.263 205.89 296.357 204.763 296.357 203.373V203.121C296.357 201.731 295.263 200.604 293.914 200.604Z" fill="#DDE3E9"/>
<path d="M241.8 208.911C247.197 208.911 251.572 204.403 251.572 198.843C251.572 193.282 247.197 188.775 241.8 188.775C236.404 188.775 232.029 193.282 232.029 198.843C232.029 204.403 236.404 208.911 241.8 208.911Z" fill="#C5CFD6"/>
<path d="M533.314 42.7888H273.557C269.959 42.7888 267.043 45.7939 267.043 49.5008V326.37C267.043 330.077 269.959 333.082 273.557 333.082H533.314C536.912 333.082 539.829 330.077 539.829 326.37V49.5008C539.829 45.7939 536.912 42.7888 533.314 42.7888Z" fill="#F2F2F2"/>
<path d="M520.286 78.8657H476.314C472.717 78.8657 469.8 81.8708 469.8 85.5777V140.113C469.8 143.82 472.717 146.825 476.314 146.825H520.286C523.884 146.825 526.8 143.82 526.8 140.113V85.5777C526.8 81.8708 523.884 78.8657 520.286 78.8657Z" fill="white"/>
<path d="M498.3 118.299C505.495 118.299 511.329 112.289 511.329 104.875C511.329 97.4608 505.495 91.4507 498.3 91.4507C491.104 91.4507 485.271 97.4608 485.271 104.875C485.271 112.289 491.104 118.299 498.3 118.299Z" fill="#DDE3E9"/>
<path d="M516.214 121.655H480.386C479.037 121.655 477.943 122.781 477.943 124.172C477.943 125.562 479.037 126.689 480.386 126.689H516.214C517.563 126.689 518.657 125.562 518.657 124.172C518.657 122.781 517.563 121.655 516.214 121.655Z" fill="#DDE3E9"/>
<path d="M509.7 130.045H486.9C485.551 130.045 484.457 131.172 484.457 132.562C484.457 133.952 485.551 135.079 486.9 135.079H509.7C511.049 135.079 512.143 133.952 512.143 132.562C512.143 131.172 511.049 130.045 509.7 130.045Z" fill="#DDE3E9"/>
<path fill-rule="evenodd" clip-rule="evenodd" d="M273.557 42.7888H533.314C536.912 42.7888 539.829 45.7939 539.829 49.5008V65.4418H267.043V49.5008C267.043 45.7939 269.959 42.7888 273.557 42.7888Z" fill="#C5CFD6"/>
<path d="M277.629 57.8907C279.427 57.8907 280.886 56.3882 280.886 54.5347C280.886 52.6812 279.427 51.1787 277.629 51.1787C275.83 51.1787 274.371 52.6812 274.371 54.5347C274.371 56.3882 275.83 57.8907 277.629 57.8907Z" fill="#F2F2F2"/>
<path d="M287.4 57.8907C289.199 57.8907 290.657 56.3882 290.657 54.5347C290.657 52.6812 289.199 51.1787 287.4 51.1787C285.601 51.1787 284.143 52.6812 284.143 54.5347C284.143 56.3882 285.601 57.8907 287.4 57.8907Z" fill="#F2F2F2"/>
<path d="M297.171 57.8907C298.97 57.8907 300.429 56.3882 300.429 54.5347C300.429 52.6812 298.97 51.1787 297.171 51.1787C295.373 51.1787 293.914 52.6812 293.914 54.5347C293.914 56.3882 295.373 57.8907 297.171 57.8907Z" fill="#F2F2F2"/>
<path d="M520.286 153.537H476.314C472.717 153.537 469.8 156.542 469.8 160.249V309.59C469.8 313.297 472.717 316.302 476.314 316.302H520.286C523.884 316.302 526.8 313.297 526.8 309.59V160.249C526.8 156.542 523.884 153.537 520.286 153.537Z" fill="white"/>
<path d="M508.886 168.639H487.714C485.915 168.639 484.457 170.141 484.457 171.995V187.097C484.457 188.95 485.915 190.453 487.714 190.453H508.886C510.684 190.453 512.143 188.95 512.143 187.097V171.995C512.143 170.141 510.684 168.639 508.886 168.639Z" fill="#DDE3E9"/>
<path d="M508.886 197.165H487.714C485.915 197.165 484.457 198.667 484.457 200.521V214.784C484.457 216.637 485.915 218.14 487.714 218.14H508.886C510.684 218.14 512.143 216.637 512.143 214.784V200.521C512.143 198.667 510.684 197.165 508.886 197.165Z" fill="#AFB9C5"/>
<path d="M508.886 224.852H487.714C485.915 224.852 484.457 226.354 484.457 228.208V242.471C484.457 244.324 485.915 245.827 487.714 245.827H508.886C510.684 245.827 512.143 244.324 512.143 242.471V228.208C512.143 226.354 510.684 224.852 508.886 224.852Z" fill="#DDE3E9"/>
<path d="M508.886 280.225H487.714C485.915 280.225 484.457 281.728 484.457 283.581V297.844C484.457 299.698 485.915 301.2 487.714 301.2H508.886C510.684 301.2 512.143 299.698 512.143 297.844V283.581C512.143 281.728 510.684 280.225 508.886 280.225Z" fill="#DDE3E9"/>
<path d="M508.886 252.539H487.714C485.915 252.539 484.457 254.041 484.457 255.895V270.158C484.457 272.011 485.915 273.514 487.714 273.514H508.886C510.684 273.514 512.143 272.011 512.143 270.158V255.895C512.143 254.041 510.684 252.539 508.886 252.539Z" fill="#C5CFD6"/>
<path d="M460.029 79.7048H283.329C281.53 79.7048 280.071 81.2074 280.071 83.0608V115.782C280.071 117.635 281.53 119.138 283.329 119.138H460.029C461.827 119.138 463.286 117.635 463.286 115.782V83.0608C463.286 81.2074 461.827 79.7048 460.029 79.7048Z" fill="white"/>
<path d="M420.943 91.5347H289.843C288.494 91.5347 287.4 92.6616 287.4 94.0517V94.9326C287.4 96.3227 288.494 97.4496 289.843 97.4496H420.943C422.292 97.4496 423.386 96.3227 423.386 94.9326V94.0517C423.386 92.6616 422.292 91.5347 420.943 91.5347Z" fill="#DDE3E9"/>
<path d="M376.235 101.393H289.843C288.494 101.393 287.4 102.52 287.4 103.91V104.791C287.4 106.181 288.494 107.308 289.843 107.308H376.235C377.584 107.308 378.678 106.181 378.678 104.791V103.91C378.678 102.52 377.584 101.393 376.235 101.393Z" fill="#DDE3E9"/>
<path d="M443.706 105.294C446.854 105.294 449.406 102.665 449.406 99.4213C449.406 96.1778 446.854 93.5483 443.706 93.5483C440.558 93.5483 438.006 96.1778 438.006 99.4213C438.006 102.665 440.558 105.294 443.706 105.294Z" fill="#DDE3E9"/>
<path d="M443.706 101.938C445.055 101.938 446.148 100.811 446.148 99.4213C446.148 98.0312 445.055 96.9043 443.706 96.9043C442.356 96.9043 441.263 98.0312 441.263 99.4213C441.263 100.811 442.356 101.938 443.706 101.938Z" fill="#F2F2F2"/>
<path d="M460.029 125.85H283.329C281.53 125.85 280.071 127.352 280.071 129.206V155.215C280.071 157.068 281.53 158.571 283.329 158.571H460.029C461.827 158.571 463.286 157.068 463.286 155.215V129.206C463.286 127.352 461.827 125.85 460.029 125.85Z" fill="white"/>
<path d="M421.004 135.666H289.782C288.466 135.666 287.4 136.765 287.4 138.12C287.4 139.475 288.466 140.574 289.782 140.574H421.004C422.319 140.574 423.386 139.475 423.386 138.12C423.386 136.765 422.319 135.666 421.004 135.666Z" fill="#DDE3E9"/>
<path d="M376.296 143.846H289.782C288.466 143.846 287.4 144.945 287.4 146.3C287.4 147.656 288.466 148.754 289.782 148.754H376.296C377.612 148.754 378.678 147.656 378.678 146.3C378.678 144.945 377.612 143.846 376.296 143.846Z" fill="#DDE3E9"/>
<path d="M443.706 148.083C446.854 148.083 449.406 145.454 449.406 142.21C449.406 138.967 446.854 136.337 443.706 136.337C440.558 136.337 438.006 138.967 438.006 142.21C438.006 145.454 440.558 148.083 443.706 148.083Z" fill="#DDE3E9"/>
<path d="M443.706 144.727C445.055 144.727 446.148 143.6 446.148 142.21C446.148 140.82 445.055 139.693 443.706 139.693C442.356 139.693 441.263 140.82 441.263 142.21C441.263 143.6 442.356 144.727 443.706 144.727Z" fill="#F2F2F2"/>
<path d="M460.029 165.283H283.329C281.53 165.283 280.071 166.785 280.071 168.639V194.648C280.071 196.501 281.53 198.004 283.329 198.004H460.029C461.827 198.004 463.286 196.501 463.286 194.648V168.639C463.286 166.785 461.827 165.283 460.029 165.283Z" fill="white"/>
<path d="M421.004 175.099H289.782C288.466 175.099 287.4 176.198 287.4 177.553C287.4 178.908 288.466 180.007 289.782 180.007H421.004C422.319 180.007 423.386 178.908 423.386 177.553C423.386 176.198 422.319 175.099 421.004 175.099Z" fill="#DDE3E9"/>
<path d="M376.296 183.279H289.782C288.466 183.279 287.4 184.378 287.4 185.733C287.4 187.088 288.466 188.187 289.782 188.187H376.296C377.612 188.187 378.678 187.088 378.678 185.733C378.678 184.378 377.612 183.279 376.296 183.279Z" fill="#DDE3E9"/>
<path d="M443.706 187.516C446.854 187.516 449.406 184.887 449.406 181.643C449.406 178.4 446.854 175.77 443.706 175.77C440.558 175.77 438.006 178.4 438.006 181.643C438.006 184.887 440.558 187.516 443.706 187.516Z" fill="#DDE3E9"/>
<path d="M443.706 184.16C445.055 184.16 446.148 183.033 446.148 181.643C446.148 180.253 445.055 179.126 443.706 179.126C442.356 179.126 441.263 180.253 441.263 181.643C441.263 183.033 442.356 184.16 443.706 184.16Z" fill="#AFB9C5"/>
<path d="M460.029 283.581H283.329C281.53 283.581 280.071 285.084 280.071 286.937V312.946C280.071 314.8 281.53 316.302 283.329 316.302H460.029C461.827 316.302 463.286 314.8 463.286 312.946V286.937C463.286 285.084 461.827 283.581 460.029 283.581Z" fill="white"/>
<path d="M421.004 293.397H289.782C288.466 293.397 287.4 294.496 287.4 295.852C287.4 297.207 288.466 298.306 289.782 298.306H421.004C422.319 298.306 423.386 297.207 423.386 295.852C423.386 294.496 422.319 293.397 421.004 293.397Z" fill="#DDE3E9"/>
<path d="M376.296 301.578H289.782C288.466 301.578 287.4 302.676 287.4 304.032C287.4 305.387 288.466 306.486 289.782 306.486H376.296C377.612 306.486 378.678 305.387 378.678 304.032C378.678 302.676 377.612 301.578 376.296 301.578Z" fill="#DDE3E9"/>
<path d="M443.706 305.815C446.854 305.815 449.406 303.185 449.406 299.942C449.406 296.698 446.854 294.069 443.706 294.069C440.558 294.069 438.006 296.698 438.006 299.942C438.006 303.185 440.558 305.815 443.706 305.815Z" fill="#DDE3E9"/>
<path d="M443.706 302.459C445.055 302.459 446.148 301.332 446.148 299.942C446.148 298.552 445.055 297.425 443.706 297.425C442.356 297.425 441.263 298.552 441.263 299.942C441.263 301.332 442.356 302.459 443.706 302.459Z" fill="#F2F2F2"/>
<path d="M460.029 244.148H283.329C281.53 244.148 280.071 245.651 280.071 247.504V273.513C280.071 275.367 281.53 276.869 283.329 276.869H460.029C461.827 276.869 463.286 275.367 463.286 273.513V247.504C463.286 245.651 461.827 244.148 460.029 244.148Z" fill="white"/>
<path d="M421.004 253.965H289.782C288.466 253.965 287.4 255.064 287.4 256.419C287.4 257.774 288.466 258.873 289.782 258.873H421.004C422.319 258.873 423.386 257.774 423.386 256.419C423.386 255.064 422.319 253.965 421.004 253.965Z" fill="#DDE3E9"/>
<path d="M376.296 262.145H289.782C288.466 262.145 287.4 263.244 287.4 264.599C287.4 265.954 288.466 267.053 289.782 267.053H376.296C377.612 267.053 378.678 265.954 378.678 264.599C378.678 263.244 377.612 262.145 376.296 262.145Z" fill="#DDE3E9"/>
<path d="M443.706 266.382C446.854 266.382 449.406 263.752 449.406 260.509C449.406 257.265 446.854 254.636 443.706 254.636C440.558 254.636 438.006 257.265 438.006 260.509C438.006 263.752 440.558 266.382 443.706 266.382Z" fill="#DDE3E9"/>
<path d="M443.706 263.026C445.055 263.026 446.148 261.899 446.148 260.509C446.148 259.119 445.055 257.992 443.706 257.992C442.356 257.992 441.263 259.119 441.263 260.509C441.263 261.899 442.356 263.026 443.706 263.026Z" fill="#F2F2F2"/>
<path d="M460.029 204.716H283.329C281.53 204.716 280.071 206.218 280.071 208.072V234.081C280.071 235.934 281.53 237.437 283.329 237.437H460.029C461.827 237.437 463.286 235.934 463.286 234.081V208.072C463.286 206.218 461.827 204.716 460.029 204.716Z" fill="white"/>
<path d="M421.004 214.532H289.782C288.466 214.532 287.4 215.63 287.4 216.986C287.4 218.341 288.466 219.44 289.782 219.44H421.004C422.319 219.44 423.386 218.341 423.386 216.986C423.386 215.63 422.319 214.532 421.004 214.532Z" fill="#DDE3E9"/>
<path d="M376.296 222.712H289.782C288.466 222.712 287.4 223.811 287.4 225.166C287.4 226.521 288.466 227.62 289.782 227.62H376.296C377.612 227.62 378.678 226.521 378.678 225.166C378.678 223.811 377.612 222.712 376.296 222.712Z" fill="#DDE3E9"/>
<path d="M443.706 226.949C446.854 226.949 449.406 224.32 449.406 221.076C449.406 217.833 446.854 215.203 443.706 215.203C440.558 215.203 438.006 217.833 438.006 221.076C438.006 224.32 440.558 226.949 443.706 226.949Z" fill="#DDE3E9"/>
<path d="M443.706 223.593C445.055 223.593 446.148 222.466 446.148 221.076C446.148 219.686 445.055 218.559 443.706 218.559C442.356 218.559 441.263 219.686 441.263 221.076C441.263 222.466 442.356 223.593 443.706 223.593Z" fill="#F2F2F2"/>
<path fill-rule="evenodd" clip-rule="evenodd" d="M607.402 185.734C604.191 183.49 599.92 182.902 596.076 182.902C581.064 182.902 566.953 188.64 554.763 197.191C548.084 201.877 542.109 207.843 536.833 214.056C533.788 217.642 531.073 221.521 529.151 225.836C527.854 228.748 526.964 231.782 526.36 234.912C525.625 238.726 525.041 242.618 524.776 246.495C524.672 248.022 523.811 256.125 526.275 256.262C526.261 256.462 526.258 256.652 526.273 256.823C520.923 265.442 517.617 275.544 514.552 285.121C511.885 293.456 509.508 301.86 507.965 310.482C505.934 321.833 504.6 333.355 503.966 344.87C503.83 347.344 503.736 349.82 503.655 352.298C503.587 354.412 503.518 356.525 503.451 358.639C503.376 361.007 502.971 363.734 503.336 366.089C503.655 368.139 505.377 367.829 505.453 365.788C505.545 363.324 505.53 360.855 505.635 358.389C505.774 355.116 505.917 351.843 506.073 348.571C507.155 325.841 511.215 303.445 518.707 281.974C521.739 273.285 525.213 265.06 529.679 257.023C533.604 249.956 538.327 243.114 543.154 236.742C547.846 230.55 552.723 224.502 558.472 219.255C563.137 214.998 568.268 211.289 573.543 207.838C580.243 203.456 586.929 199.179 594.186 195.815C597.959 194.066 601.802 192.5 605.604 190.822C606.288 190.52 607.021 190.227 607.679 189.878C609.874 188.712 609.151 186.955 607.402 185.734Z" fill="#C1DEE2"/>
<path fill-rule="evenodd" clip-rule="evenodd" d="M547.009 265.124C553.097 265.124 558.515 265.939 564.125 268.432C568.968 270.584 573.381 273.432 577.666 276.533C583.693 280.895 588.44 285.971 591.763 292.697C593.748 296.715 595.205 302.401 593.871 306.784C592.301 311.946 587.989 316.251 582.309 315.341C578.797 314.779 575.578 312.384 572.909 310.13C569.716 307.433 567.16 304.19 565.049 300.588C561.606 294.713 559.583 288.071 556.658 281.932C555.271 279.018 553.929 276.083 552.267 273.314C551.444 271.943 550.568 270.584 549.32 269.565C548.652 269.02 545.836 268.077 546.913 266.853C531.124 267.066 517.136 279.561 514.105 295.026C513.822 296.468 513.602 297.921 513.369 299.371C513.222 300.287 513.281 303.664 512.486 304.249C510.734 305.54 511.471 301.619 511.546 301.055C511.74 299.596 511.948 298.138 512.165 296.683C513.349 288.768 516.769 281.41 522.472 275.765C528.994 269.31 537.794 265.124 547.009 265.124Z" fill="#89C5CC"/>
<path fill-rule="evenodd" clip-rule="evenodd" d="M120.642 224.49C116.407 219.081 113.541 212.453 114.02 205.025C115.4 183.625 142.78 188.333 148.106 199.134C153.432 209.935 152.799 237.333 145.916 239.263C143.171 240.033 137.323 238.147 131.371 234.244L135.107 263H113.049L120.642 224.49Z" fill="#CBB79A"/>
<path fill-rule="evenodd" clip-rule="evenodd" d="M135.533 186.685C132.626 186.167 124.798 185.81 123.355 185.81C122.432 185.81 121.432 186.039 120.886 185.118C120.439 184.363 120.602 183.087 120.469 182.211C120.314 181.193 120.094 180.189 119.871 179.187C119.237 176.337 118.278 173.625 116.937 171.079C114.42 166.302 110.733 162.56 106.079 160.383C100.939 157.979 95.1225 157.428 89.5937 157.916C83.6772 158.438 78.3214 160.563 72.7352 162.562C67.4119 164.468 61.8363 165.218 56.2687 164.288C50.6591 163.35 46.4205 160.042 41.6889 156.902C36.8451 153.688 31.3096 151.586 25.5833 152.069C20.2381 152.52 15.3116 154.922 10.8916 158.129C6.75616 161.131 3.34391 164.742 1.41744 169.824C-0.655014 175.291 -0.65311 181.292 2.75492 186.123C7.69471 193.127 16.8653 194.938 24.4948 194.758C28.9078 194.654 33.2419 193.777 37.4084 192.183C42.9648 190.056 47.7664 186.452 52.9646 183.528C55.4042 182.156 57.9257 181.029 60.5688 180.217C63.1337 179.429 65.6599 179.067 67.9821 180.753C70.4387 182.537 72.6401 184.289 75.4505 185.405C78.1465 186.476 81.0022 187.075 83.8746 187.051C89.4633 187.004 94.9725 185.109 100.4 183.84C104.827 182.806 109.563 181.774 114.075 182.769C115.958 183.184 118.709 184.041 119.389 186.17C107.942 188.427 103.446 203.83 106.674 215.137C108.415 221.24 118.885 228.374 122.955 225.166C125.534 223.133 123.968 220.465 122.955 218.703C121.015 215.33 120.351 210.997 123.941 208.648C127.039 206.622 130.295 211.433 130.357 211.427C131.208 211.354 138.563 206.829 143.631 200.224C148.63 200.547 149.388 196.96 148.195 194.027C147.001 191.094 139.55 187.402 135.533 186.685Z" fill="#00214E"/>
<path d="M103.858 520C142.943 520 174.628 487.093 174.628 446.5C174.628 405.907 142.943 373 103.858 373C64.7723 373 33.0874 405.907 33.0874 446.5C33.0874 487.093 64.7723 520 103.858 520Z" fill="#D3D1D1"/>
<path fill-rule="evenodd" clip-rule="evenodd" d="M237.594 508.66C225.818 480.302 217.302 455.608 213.883 442.58C208.03 420.273 203.577 400.643 202.452 393.313C199.768 375.832 223.097 374.814 226.18 383.502C230.847 396.651 238.995 439.853 248.785 505.108L237.594 508.66ZM100.998 419.664C111.802 415.017 149.639 400.475 167.888 396.361C173.132 395.179 178.215 394.081 182.994 393.088C197.197 390.138 204.556 418.018 190.876 420.16C156.808 425.494 108.511 431.003 104.378 431.622C98.5848 432.488 94.2074 422.584 100.998 419.664Z" fill="#CBB79A"/>
<path fill-rule="evenodd" clip-rule="evenodd" d="M191.711 385.416L133.269 353.047V346H140.219C196.759 361.676 225.652 371.722 226.895 376.138C226.909 376.185 226.921 376.233 226.932 376.281C226.961 376.321 226.989 376.362 227.016 376.403C238.221 393.17 244.932 475.027 247.135 481.156L225.663 484.641C217.45 451.503 191.171 428.418 191.87 388.729C191.681 387.565 191.633 386.461 191.711 385.416Z" fill="#003174"/>
<path fill-rule="evenodd" clip-rule="evenodd" d="M138.124 404.64C132.777 403.476 127.853 402.436 123.639 401.632C96.4215 396.438 88.4847 380.586 93.1774 346L143.325 346C151.517 348.56 194.089 367.985 216.177 378.316C230.796 385.154 226.188 409.804 217.909 416.219C217.864 416.613 217.715 416.88 217.45 417C172.915 437.083 137.685 426.545 125.916 429.912L120.472 411.228L138.124 404.64Z" fill="#003174" fill-opacity="0.9"/>
<path fill-rule="evenodd" clip-rule="evenodd" d="M105.144 416.835C102.143 417.225 100.006 417.765 98.7329 418.453C97.185 419.29 95.0438 420.778 92.3094 422.918C93.1281 424.779 100.487 441.505 114.385 473.095C119.118 472.15 121.032 470.183 120.128 467.195C119.223 464.206 118.496 461.711 117.946 459.708L117.717 430.963C117.713 430.409 117.287 429.989 116.766 430.023C116.757 430.023 116.748 430.024 116.739 430.025L112.571 430.423C110.256 428.455 108.741 426.658 108.025 425.032C107.444 423.711 107.156 421.608 107.162 418.724L107.162 418.724C107.164 417.617 106.321 416.766 105.279 416.822C105.234 416.825 105.189 416.829 105.144 416.835Z" fill="#E8DCD2"/>
<path fill-rule="evenodd" clip-rule="evenodd" d="M232.235 503.402C231.207 506.388 230.693 508.623 230.693 510.106C230.693 511.909 230.969 514.54 231.521 518C233.444 518 250.723 518 283.36 518C284.707 513.155 283.929 510.539 281.027 510.152C278.124 509.766 275.713 509.417 273.794 509.106L249.699 497.419C249.236 497.194 248.692 497.421 248.486 497.925C248.482 497.934 248.479 497.942 248.476 497.951L246.927 502.039C244.24 503.403 242.057 504.085 240.377 504.085C239.012 504.085 237.127 503.485 234.722 502.286L234.722 502.285C233.8 501.825 232.708 502.266 232.285 503.27C232.267 503.313 232.25 503.357 232.235 503.402Z" fill="#E8DCD2"/>
<path fill-rule="evenodd" clip-rule="evenodd" d="M190.252 318.617L223.555 302.704C229.389 296.379 235.023 291.572 240.456 288.282C242.08 287.719 244.856 287.549 241.895 292.255C238.933 296.961 236.013 302.056 237.196 303.705C238.38 305.355 241.807 303.534 243.161 306.216C244.064 308.004 238.286 310.143 225.828 312.633L200.886 333.439L190.252 318.617ZM55.6127 323L74.4466 327.066C55.5059 365.471 45.3484 385.826 43.974 388.13C40.8816 393.315 43.7669 402.817 44.8327 407.821C38.1464 409.515 40.7833 398.565 32.3219 400.851C24.5987 402.938 18.0504 408.293 10.8488 401.071C9.96344 400.183 9.31529 397.407 12.334 395.984C19.8548 392.437 30.9661 385.796 32.7678 383.218C35.2247 379.702 42.8397 359.63 55.6127 323Z" fill="#CBB79A"/>
<path fill-rule="evenodd" clip-rule="evenodd" d="M125.635 246.332L133.583 244.849C150.893 263.119 157.957 307.012 169.494 312.823C180.401 318.316 195.862 313 214.24 305.823L219.869 319.505C203.17 339.161 167.596 355.767 153.176 346.287C130.122 331.13 124.8 276.994 125.635 246.332Z" fill="#ED1C24"/>
<path fill-rule="evenodd" clip-rule="evenodd" d="M90.9901 355C122.857 355 146.297 355 161.311 355C164.525 355 163.919 349.952 163.455 347.404C158.094 318.004 137.167 286.312 137.167 244.461L116.883 241C100.105 270.358 94.3033 306.505 90.9901 355Z" fill="#DDE3E9"/>
<path fill-rule="evenodd" clip-rule="evenodd" d="M83.9764 325.233C69.6409 353.368 57.5912 373.623 47.8272 386L33.0873 382.859C42.5821 318.791 70.0777 271.504 115.574 241H115.806L123.606 241C141.815 308.537 146.835 353.537 138.666 376H75.3656C76.3671 359.563 79.5782 342.181 83.9764 325.233H83.9764Z" fill="#DA291C"/>
</svg>
