<svg width="138" height="216" fill="none" xmlns="http://www.w3.org/2000/svg">
  <path fill-rule="evenodd" clip-rule="evenodd" d="M55.662 34.309c-2.963-2.023-5.355-4.834-6.066-8.511-2.05-10.596 13.166-12.221 17.413-7.734 4.247 4.486 7.477 17.89 4.057 19.81-1.364.767-4.729.687-8.412-.36l5.737 13.439-11.766 3.152-.963-19.796Z" fill="#CBB09A"/>
  <path fill-rule="evenodd" clip-rule="evenodd" d="M60.83 13.593c-1.737-.055-4.115.405-5.067.78a8.62 8.62 0 0 0-.537-4.403c-.55-1.351-1.5-2.373-2.417-3.464-.422-.503-.88-.993-1.452-1.31a3.641 3.641 0 0 0-1.898-.44 4.643 4.643 0 0 0-1.915.511c-.263.133-.479.326-.733.469-.26.147-.442.01-.692-.11-.601-.29-1.373-.304-2.012-.213-.716.103-1.408.4-2.01.803-.585.393-1.108.916-1.434 1.562a2.975 2.975 0 0 0-.307.925c-.019.133-.008.206-.117.282-.1.07-.23.107-.334.176-1.011.67-1.733 1.776-1.957 3.007-.131.718.026 1.878.402 3.125.377 1.247 2.401 4.22 3.793 5.13 1.243.812 2.837 1.14 4.277 1.086-.628 1.26-.885 2.696-.981 4.111-.104 1.538-.01 3.08.28 4.601.274 1.445.666 2.945 1.373 4.242.66 1.212 1.616 2.096 2.915 2.471.596.172 1.21.256 1.821.32.603.063 1.205.119 1.81.083 1.143-.069 2.381-.441 2.987-1.52.218-.389.445-.865.564-1.3.042-.157.066-.258-.065-.364-.157-.128-.376-.2-.556-.284a4.324 4.324 0 0 1-2.237-2.373c-.438-1.102-.523-2.654.46-3.45 1.214-.982 2.92-.685 4.32-.357.033-1.96.663-3.886 2.115-5.17 1.606-1.422 3.704-2.1 5.397-3.403.441-.34.884-.71 1.137-1.229.105-.217.223-.493.222-.742-.002-.327-.27-.53-.487-.727-1.153-1.045-4.927-2.77-6.664-2.825ZM59.31 95.074l18.4 64.321 13.425 47.407h9.791L86.66 95.074H59.31Z" fill="#00214E"/>
  <path fill-rule="evenodd" clip-rule="evenodd" d="M54.39 95.074c-.426 33.152-1.877 51.233-2.324 54.245-.447 3.012-7.203 22.173-20.27 57.483H41.94c16.634-33.874 25.92-53.035 27.857-57.483 1.937-4.448 7.915-22.529 16.92-54.245H54.39Z" fill="#003174"/>
  <path fill-rule="evenodd" clip-rule="evenodd" d="m30.89 215.98.507-10.658h10.658c5.054 3.553 11.652 6.429 19.793 8.628v2.03H42.563l-6.598-1.015v1.015H30.89ZM89.761 215.98l.508-10.658h10.657c5.054 3.553 11.652 6.429 19.793 8.628v2.03h-19.285l-6.598-1.015v1.015h-5.075Z" fill="#00214E"/>
  <path fill-rule="evenodd" clip-rule="evenodd" d="m100.678 81.675 17.331 10.067c4.49.712 8.29 1.786 11.403 3.223.758.554 1.727 1.737-1.166 1.82-2.893.083-5.932.3-6.226 1.316-.294 1.016 1.565 1.998.902 3.397-.442.932-3.194-.999-8.255-5.795l-16.631-4.898 2.642-9.13Zm-69.291 6.539 9.078-.282c-5.885 22.191-9.066 33.939-9.544 35.244-1.074 2.936 1.56 7.256 2.703 9.587-3.406 1.664-3.233-4.054-7.527-1.878-3.919 1.985-6.834 5.435-11.532 2.773-.577-.327-1.242-1.613.22-2.689 3.645-2.679 8.87-7.328 9.546-8.821.922-2.036 3.274-13.347 7.056-33.934Z" fill="#CBB09A"/>
  <path fill-rule="evenodd" clip-rule="evenodd" d="m62.056 45.78 5.167-2.773c10.703 17.184 24.955 33.124 46.162 44.97l-3.197 8.68c-17.98-6.678-34.713-11.378-43.5-24.607-2.949-4.44-3.789-20.489-4.632-26.27Z" fill="#C5CFD6"/>
  <path fill-rule="evenodd" clip-rule="evenodd" d="M52.394 101.158c16.005-1.113 28.373-3.294 37.104-6.543 1.081-.402.93-2.295.188-3.468-11.544-18.26-20.108-34.458-22.519-48.13-1.35 1.005-3.922 1.573-7.718 1.706-7.468 15.844-9.193 32.816-7.055 56.435Z" fill="#1E1E1E"/>
  <path fill-rule="evenodd" clip-rule="evenodd" d="m56.767 43.978 4.148-.732c1.962 5.482 18.505 81.485 32.324 104.865l-50.883 8.972c-2.942-23.131.902-52.218 5.651-76.83-6.543 8.473-11.216 21.697-14.019 39.674l-9.96-.754c1.729-31.635 12.36-56.538 31.896-74.709l.085-.352.367-.065.36-.33.031.26Z" fill="#DDE3E9"/>
</svg>