<svg width="442" height="564" viewBox="0 0 442 564" fill="none" xmlns="http://www.w3.org/2000/svg">
<path opacity="0.2" fill-rule="evenodd" clip-rule="evenodd" d="M188.148 33.777C191.29 32.2187 195.48 34.026 193.732 38.1456C191.86 42.557 184.939 42.6115 181.03 42.524C181.421 42.5035 182.681 38.4582 183.112 37.8469C184.384 36.0436 186.216 34.7368 188.148 33.777ZM151.963 114.156C150.853 115.105 151.873 114.245 151.963 114.156V114.156ZM191.8 54.2586C193.679 55.6808 193.768 58.1935 192.231 59.895C190.402 61.9207 187.063 61.8487 184.571 61.6527C183.443 61.5639 177.424 61.0895 178.851 60.1132C178.741 60.1543 178.512 60.2541 178.267 60.3896C178.134 60.8674 177.995 61.3436 177.851 61.8175C177.886 61.838 177.916 61.86 177.954 61.8804C177.913 61.8626 177.884 61.8434 177.848 61.8254C176.398 66.563 174.335 71.0743 171.635 75.2952C172.645 74.901 173.69 74.6024 174.751 74.4693C177.892 74.0743 184.497 76.488 180.982 80.6309C177.612 84.6025 172.37 80.3461 168.547 79.7607C164.837 84.8877 160.746 89.8015 156.459 94.5512C156.721 94.6325 156.952 94.8021 157.084 95.0661C158.803 94.2017 160.595 92.9653 162.186 92.6301C164.481 92.1469 169.188 91.8523 170.922 93.8863C173.055 96.3873 170.766 98.4207 168.245 98.9019C164.589 99.5997 159.805 97.8333 156.288 96.6399C155.885 96.7106 155.446 96.5942 155.184 96.2756C155.106 96.2505 155.029 96.2257 154.953 96.2016C150.612 100.928 146.105 105.499 141.625 109.97C141.673 109.967 141.72 109.964 141.77 109.962C142.938 109.202 144.191 108.579 145.55 108.253C148.691 107.493 152.387 107.487 154.935 109.737C157.473 111.977 158.371 115.896 155.742 118.414C150.482 123.455 142.74 111.972 140.088 111.494C135.536 115.989 130.723 120.19 125.834 124.306C126.389 124.138 126.958 124.015 127.546 123.959C132.339 123.502 143.583 129.315 137.699 135.042C132.572 140.033 126.645 130.435 122.517 127.079C117.91 130.915 113.278 134.725 108.776 138.683C111.231 138.037 113.603 137.941 116.234 138.727C118.956 139.541 123.347 141.575 121.625 145.216C119.872 148.919 114.598 147.237 111.851 146.063C110.353 145.423 107.349 143.261 104.712 142.351C97.5276 149.068 91.3041 156.466 86.5909 165.18C83.6484 170.621 81.4146 176.433 79.8414 182.406C78.8372 186.219 76.8591 192.623 77.2519 197.584C75.3726 187.654 78.786 175.724 82.461 166.845C85.84 158.68 90.8944 151.511 96.8137 145.058C95.3314 140.636 82.8388 134.264 90.3111 130.152C94.279 127.978 98.3401 131.58 99.2053 135.397C99.7995 138.02 98.8904 141.317 97.9261 143.864C99.7882 141.896 101.724 139.992 103.718 138.151C106.475 135.607 109.297 133.137 112.146 130.697C107.455 126.333 103.02 113.852 109.314 111.808C118.608 108.797 114.125 125.826 113.475 129.018C113.291 129.029 113.147 128.974 113.042 128.856C113.094 129.148 113.154 129.46 113.228 129.775C118.681 125.131 124.215 120.577 129.568 115.822C129.086 115.469 128.32 114.121 127.718 113.404C126.36 111.787 125.061 110.098 124.111 108.206C122.612 105.217 121.166 100.448 125.147 98.6867C129.475 96.7682 131.529 102.162 131.558 105.38C131.577 107.606 130.964 109.721 130.644 111.902C130.544 112.583 130.926 115.65 129.991 114.331C130.035 114.817 130.041 115.17 130.019 115.419C130.98 114.561 131.933 113.694 132.881 112.82C132.837 112.71 132.804 112.59 132.797 112.451C132.747 111.491 133.722 111.121 134.405 111.402C135.656 110.225 136.894 109.034 138.109 107.819C140.687 105.244 143.301 102.596 145.897 99.8923C145.335 99.4135 145.559 98.7501 145.033 98.2418C144.507 97.7347 143.472 97.4546 142.854 96.9836C141.3 95.7983 140.011 94.0709 139.08 92.3707C137.542 89.5615 135.556 83.6677 140.053 82.3261C144.689 80.9411 147.039 86.6143 147.335 90.1618C147.393 90.849 146.87 97.042 146.471 99.291C151.276 94.2654 156.001 89.0515 160.283 83.7471C158.985 83.7358 155.309 81.1053 154.565 80.3874C152.752 78.6363 149.87 74.7665 153.052 72.7162C155.881 70.8978 159.366 73.5278 160.574 76.0849C160.772 76.506 161.471 80.4257 161.525 82.1844C163.297 79.9351 164.988 77.6725 166.56 75.4027C167.609 73.8937 168.59 72.3448 169.507 70.763C169.286 70.6393 169.079 70.4234 168.883 70.155C164.166 69.3646 158.156 62.079 163.698 59.5402C166.337 58.333 169.196 60.8207 170.487 62.8579C170.752 63.2747 171.18 65.3706 171.528 67.0238C174.167 61.7839 176.185 56.2369 177.721 50.5498C177.31 50.4491 176.963 50.1386 176.917 49.6043C174.628 48.3125 172.82 47.2368 171.223 44.7512C170.23 43.2074 168.443 39.6799 171.362 38.8212C175.16 37.704 177.543 43.4473 177.852 46.2767C177.888 46.6051 177.886 47.5603 177.873 48.4357C178.005 48.4178 178.138 48.4198 178.269 48.4426C179.143 44.9211 179.841 41.3544 180.397 37.7818C178.324 37.1222 177.971 26.3415 179.352 24.8057C182.439 21.3669 184.613 26.331 184.447 28.9553C184.251 32.0496 182.833 34.865 181.146 37.3639C180.965 37.6285 181.017 37.6156 180.97 37.2472C180.944 37.4293 180.883 37.5638 180.791 37.6612C180.877 39.2899 181.046 40.9573 180.964 42.3986C180.728 46.5261 180.241 50.6778 179.534 54.7524C179.362 55.7434 179.165 56.7263 178.944 57.7007C180.611 56.2942 182.858 55.0442 183.737 54.6532C186.019 53.6394 189.535 52.5442 191.8 54.2586ZM76.8787 197.193C76.9888 198.519 77.3159 199.729 77.9598 200.721C77.4871 199.587 77.1326 198.407 76.8787 197.193Z" fill="#C1DEE2"/>
<g opacity="0.5">
<path opacity="0.5" fill-rule="evenodd" clip-rule="evenodd" d="M159.513 168.924C163.274 163.561 170.254 149.941 175.548 148.024C178.957 146.79 177.963 159.558 178.005 161.993C178.169 171.412 177.252 180.771 176.12 190.111C174.08 206.955 167.409 221.956 158.259 236.293C153.551 243.67 148.029 251.136 140.38 255.739C136.859 257.859 132.623 258.214 129.146 260.04C125.096 262.166 127.302 260.447 125.477 264.667C122.942 270.525 122.132 278.084 120.959 284.335C115.575 313.031 102.541 464.728 104.801 493.918C105.001 496.505 101.394 497.124 101.214 493.965C100.256 477.218 108.539 361.244 112.718 323.317C116.897 285.39 121.126 251.883 125.367 238.762C130.511 222.843 139.801 203.699 147.535 188.853C151.128 181.956 155.043 175.297 159.513 168.924Z" fill="#69A1AC"/>
<path opacity="0.5" fill-rule="evenodd" clip-rule="evenodd" d="M187.43 354.939C197.217 347.754 207.811 361.314 198.954 368.501C194.058 372.473 188.94 371.06 186.058 367.75C184.188 370.03 182.437 372.414 180.755 374.428C175.629 380.564 170.785 386.847 166.155 393.276C156.537 406.632 148.295 420.743 139.677 434.596C131.172 448.268 122.736 462.01 115.027 476.029C108.497 487.906 99.7929 501.878 97.5572 514.899C100.949 487.284 113.821 460.742 129.15 436.397C144.353 412.253 161.801 385.884 185.342 366.83C182.946 363.307 182.879 358.277 187.43 354.939Z" fill="#C1DEE2"/>
<path opacity="0.5" fill-rule="evenodd" clip-rule="evenodd" d="M1.71235 287.591C7.1892 288.662 16.1383 301.052 20.6529 305.772C26.0181 311.382 30.8857 317.361 35.474 323.626C45.3517 337.11 54.1855 351.446 61.6973 366.397C73.9434 390.769 83.7541 415.788 90.8742 442.329C95.2327 458.575 98.0546 475.413 99.727 492.134C100.043 495.288 103.349 519.6 98.585 520.256C94.3003 520.846 95.6237 501.794 95.417 499.203C93.0804 469.967 86.0806 441.52 76.3439 413.964C74.2231 407.961 72.2528 400.608 68.8612 395.206C66.4187 391.315 68.8437 392.672 64.5514 391.2C60.8658 389.935 56.6665 390.244 52.8924 388.695C44.6934 385.333 38.1284 378.805 32.3737 372.24C21.1903 359.48 12.328 345.676 7.70848 329.326C5.14589 320.26 2.791 311.142 1.48417 301.796C1.14612 299.381 -1.81525 286.901 1.71235 287.591Z" fill="#69A1AC"/>
<path opacity="0.5" fill-rule="evenodd" clip-rule="evenodd" d="M23.3254 81.455C43.9556 117.233 60.9086 156.534 71.8553 196.34C78.4877 220.458 83.1259 245.207 87.7343 269.776C94.8697 307.82 101.619 345.86 103.539 384.579C105.47 423.523 109.29 468.44 96.5376 505.949C102.907 467.867 96.8429 427.332 95.7692 389.014C95.2561 370.722 93.7691 352.608 91.8186 334.423C89.9257 316.782 86.8334 299.225 83.9537 281.723C82.551 273.199 81.0778 264.688 79.5778 256.181C79.1301 253.643 78.9409 246.112 77.331 244.379C75.7107 242.634 67.4436 241.922 64.8481 240.642C59.6217 238.063 54.7055 234.399 50.3546 230.528C42.0138 223.108 34.7578 213.412 29.0307 203.855C15.7798 181.74 10.4821 154.752 10.7499 129.14C10.8013 124.167 18.7985 70.6198 15.5867 69.8824C15.7801 69.6559 15.963 69.4221 16.1354 69.1788C18.567 73.2501 20.9531 77.3489 23.3254 81.455Z" fill="#89C5CC"/>
<path opacity="0.5" fill-rule="evenodd" clip-rule="evenodd" d="M245.993 210.491C246.311 210.032 248.383 206.839 247.34 207.043C249.464 206.627 244.418 210.565 249.711 208.149C247.198 210.522 248.648 213.605 248.682 216.799C248.736 221.985 247.869 227.129 246.892 232.204C245.348 240.225 243.049 248.024 239.712 255.486C232.438 271.745 220.087 287.397 205.424 297.563C198.185 302.582 191.09 304.29 182.834 306.601C177.62 308.061 177.206 310.758 174.438 315.819C168.675 326.358 163.015 336.86 157.933 347.755C151.864 360.765 145.973 373.79 140.416 387.029C121.695 431.624 106.458 477.825 98.4565 525.639C98.2606 497.463 104.779 468.443 113.001 441.586C118.99 422.019 126.787 403.156 135.103 384.485C137.118 379.962 140.172 374.143 141.028 369.149C141.627 365.65 139.795 362.285 138.956 358.599C135.686 344.245 135.92 328.164 138.792 313.734C141.958 297.821 151.115 290.436 166.604 288.182C172.268 287.357 179.468 287.66 184.663 285.244C190.322 282.614 192.656 273.969 195.874 268.419C204.517 253.511 214.787 239.214 226.579 226.653C229.844 223.175 233.355 219.966 237.081 216.992C239.43 215.115 244.392 212.803 245.993 210.491Z" fill="#89C5CC"/>
<path opacity="0.5" fill-rule="evenodd" clip-rule="evenodd" d="M72.3099 495.208H127.279C129.751 495.208 131.755 497.212 131.755 499.684C131.755 499.902 131.739 500.12 131.707 500.336L127.458 529.146C126.163 537.928 118.627 544.435 109.749 544.435H89.8402C80.9628 544.435 73.4265 537.928 72.1314 529.146L67.8827 500.336C67.5221 497.891 69.2119 495.617 71.657 495.256C71.8732 495.224 72.0914 495.208 72.3099 495.208Z" fill="#C1DEE2"/>
</g>
<path fill-rule="evenodd" clip-rule="evenodd" d="M306.563 299.994C310.688 295.153 313.479 289.221 313.012 282.573C311.668 263.419 285.006 267.633 279.819 277.3C274.633 286.967 275.249 311.489 281.952 313.217C284.625 313.906 290.32 312.218 296.116 308.725L292.478 334.461H313.958L306.563 299.994Z" fill="#CBB09A"/>
<path fill-rule="evenodd" clip-rule="evenodd" d="M308.214 304.306C310.91 292.312 318.59 284.136 317.417 278.775C316.635 275.201 314.551 272.978 311.165 272.107C309.413 265.022 303.764 262.008 294.218 263.066C279.899 264.653 271.159 270.6 274.933 283.685C278.403 283.685 282.591 282.43 288.383 284.58C290.22 285.262 291.535 287.377 292.326 290.926H294.943C297.483 286.715 299.988 285.167 302.457 286.284C304.926 287.4 305.487 290.111 304.14 294.417L305.43 304.306H308.214Z" fill="#191847"/>
<path fill-rule="evenodd" clip-rule="evenodd" d="M373.925 446.339H270.997C263.088 446.339 256.677 452.751 256.677 460.659V543.001C256.677 550.91 263.088 557.322 270.997 557.322H373.925C381.833 557.322 388.245 550.91 388.245 543.001V460.659C388.245 452.751 381.833 446.339 373.925 446.339ZM359.604 471.4C361.581 471.4 363.184 473.003 363.184 474.98V528.681C363.184 530.658 361.581 532.261 359.604 532.261H285.318C283.34 532.261 281.737 530.658 281.737 528.681V474.98C281.737 473.003 283.34 471.4 285.318 471.4H359.604Z" fill="#C5CFD6"/>
<path fill-rule="evenodd" clip-rule="evenodd" d="M167.928 552.847C185.574 531.298 197.514 515.323 203.747 504.922C214.42 487.112 223.156 471.264 225.912 465.21C232.486 450.774 210.779 444.015 205.866 450.748C198.43 460.939 182.55 493.008 158.225 546.955L167.928 552.847Z" fill="#CBB09A"/>
<path fill-rule="evenodd" clip-rule="evenodd" d="M204.088 546.581L236.928 463.914C243.952 448.845 210.032 438.939 204.87 445.952C193.151 461.874 165.296 524.684 161.805 529.427L204.088 546.581Z" fill="#00214E"/>
<path fill-rule="evenodd" clip-rule="evenodd" d="M291.55 530.054C285.2 520.718 262.076 489.304 249.442 476.301C245.811 472.564 242.268 468.977 238.916 465.635C228.954 455.7 208.76 472.327 218.713 481.377C243.498 503.917 279.686 534.35 282.708 537.063C286.943 540.866 295.541 535.921 291.55 530.054Z" fill="#CBB09A"/>
<path fill-rule="evenodd" clip-rule="evenodd" d="M290.29 525.807C292.451 527.634 293.85 529.124 294.489 530.279C295.266 531.683 296.165 533.866 297.187 536.828C295.553 537.762 280.869 546.151 253.135 561.996C249.902 558.877 249.436 556.462 251.736 554.752C254.036 553.042 255.934 551.6 257.431 550.426L272.871 529.627C273.168 529.227 273.727 529.14 274.12 529.432C274.127 529.437 274.134 529.442 274.14 529.447L277.218 531.879C280.089 531.636 282.238 531.107 283.665 530.292C284.825 529.629 286.168 528.247 287.695 526.145L287.695 526.145C288.281 525.339 289.398 525.152 290.19 525.729C290.224 525.754 290.258 525.78 290.29 525.807Z" fill="#E4E4E4"/>
<path fill-rule="evenodd" clip-rule="evenodd" d="M175.518 549.626C176.519 552.299 177.02 554.299 177.02 555.626C177.02 557.24 176.751 559.595 176.214 562.692C174.341 562.692 157.514 562.692 125.733 562.692C124.421 558.355 125.178 556.014 128.005 555.668C130.831 555.322 133.179 555.01 135.048 554.731L158.511 544.271C158.963 544.07 159.492 544.273 159.693 544.724C159.696 544.732 159.7 544.74 159.703 544.748L161.211 548.406C163.828 549.627 165.954 550.237 167.59 550.237C168.919 550.237 170.754 549.701 173.096 548.627L173.096 548.627C173.995 548.215 175.057 548.61 175.469 549.508C175.487 549.547 175.503 549.586 175.518 549.626Z" fill="#E4E4E4"/>
<path fill-rule="evenodd" clip-rule="evenodd" d="M248.745 468.043C276.04 463.597 294.323 460.556 303.593 458.921C330.017 454.262 337.723 440.043 333.167 409.019H284.481C278.039 410.879 251.118 422.386 203.721 443.539C195.193 447.773 196.781 460.254 198.34 464.367C198.404 464.534 212.78 489.169 241.469 538.269L281.295 512.898L248.67 471.033C247.809 469.298 247.834 468.301 248.745 468.043Z" fill="#003174"/>
<path fill-rule="evenodd" clip-rule="evenodd" d="M245.238 397.302L216.688 418.267C208.945 420.356 202.475 422.956 197.28 426.066C196.053 427.184 194.57 429.449 199.659 429.057C204.749 428.666 210.12 428.483 210.822 430.219C211.524 431.955 208.444 434.031 209.864 436.373C210.81 437.935 215.281 434.019 223.277 424.627L251.549 412.904L245.238 397.302ZM354.854 398.026L336.15 398.1C347.699 435.38 353.933 455.161 354.854 457.443C356.925 462.575 352.542 470.392 350.668 474.593C356.772 477.324 356.122 467.208 363.822 470.791C370.85 474.061 376.196 479.985 384.317 474.975C385.315 474.359 386.409 472.04 383.766 470.227C377.18 465.712 367.691 457.809 366.408 455.207C364.66 451.66 360.808 432.6 354.854 398.026Z" fill="#CBB09A"/>
<path fill-rule="evenodd" clip-rule="evenodd" d="M301.701 319.543L293.962 318.216C265.246 343.022 253.452 390.677 218.254 415.922L226.726 426.423C287.788 418.862 302.922 360.735 301.701 319.543Z" fill="#DA291C"/>
<path fill-rule="evenodd" clip-rule="evenodd" d="M335.439 416.804C304.407 416.804 281.58 416.804 266.959 416.804C263.83 416.804 264.42 412.285 264.872 410.005C270.093 383.691 290.472 355.326 290.472 317.869L310.224 314.771C326.562 341.048 332.212 373.399 335.439 416.804Z" fill="#DDE3E9"/>
<path fill-rule="evenodd" clip-rule="evenodd" d="M334.888 340.6C337.757 339.775 340.029 337.852 341.704 334.83C348.924 321.802 346.316 314.63 338.601 312.272C330.885 309.915 324.005 314.771 311.712 314.771C311.043 314.771 310.431 314.813 309.875 314.897L303.691 315.25C285.95 375.378 281.057 415.494 289.012 435.599H342.911C346.104 443.045 349.16 449.31 352.078 454.394H366.764C368.147 409.703 357.521 371.772 334.888 340.6Z" fill="#ED1C24"/>
<path fill-rule="evenodd" clip-rule="evenodd" d="M331.174 404.719C329.479 418.901 326.724 429.195 322.908 435.599H342.911C339.185 426.913 335.273 416.619 331.174 404.719Z" fill="black" fill-opacity="0.1"/>
<path d="M392.5 209.673C415.972 209.673 435 199.6 435 187.173C435 174.747 415.972 164.673 392.5 164.673C369.028 164.673 350 174.747 350 187.173C350 199.6 369.028 209.673 392.5 209.673Z" fill="#F2F2F2"/>
<path fill-rule="evenodd" clip-rule="evenodd" d="M442 202.673C442 175.059 419.838 152.673 392.5 152.673C365.162 152.673 343 175.059 343 202.673" fill="#DDE3E9"/>
<path d="M395 0H390V160H395V0Z" fill="#DDE3E9"/>
</svg>
