<svg width="521" height="601" viewBox="0 0 521 601" fill="none" xmlns="http://www.w3.org/2000/svg">
<path fill-rule="evenodd" clip-rule="evenodd" d="M411.101 110.587C408.431 101.68 402.162 94.7095 395.654 88.3223C382.985 75.8879 376.171 68.1998 371.656 50.0106C369.001 39.3131 366.298 27.977 357.876 20.2158C351.743 14.564 341.189 9.8154 332.987 13.8626C320.37 21.3933 316.982 36.8475 318.255 50.6858C319.832 67.8375 327.843 78.4132 343.235 84.7305C351.907 88.2885 357.672 92.9831 362.38 101.164C366.146 107.705 368.341 115.896 373.073 121.826C380.148 130.69 389.001 134.631 399.914 133.158C389.693 114.353 377.751 95.3704 363.347 79.5369C361.998 77.945 354.046 71.8523 355.65 69.1394C357.417 66.1523 365.581 77.373 365.523 77.3052C369.709 82.1102 373.582 87.2162 377.386 92.3711C377.376 92.3762 377.365 92.3789 377.354 92.3842C381.27 97.6739 385.155 103.042 388.966 108.476C390.508 110.775 392.008 113.104 393.444 115.49C395.551 118.993 398.895 128.933 402.344 131.086C403.082 131.547 403.764 131.804 404.402 131.91C406.754 135.763 409.044 139.646 411.221 143.575C416.907 153.837 421.788 164.673 424.028 176.259C424.682 179.641 424.219 192.291 426.527 194.732C430.748 199.197 429.511 190.598 429.259 188.003C427.163 166.51 419.447 148.2 408.244 130.131C411.685 125.636 412.182 114.196 411.101 110.587Z" fill="#F2F2F2"/>
<path fill-rule="evenodd" clip-rule="evenodd" d="M266.553 120.972C271.002 115.73 281.698 114.84 288.239 115.191C296.334 115.625 304.648 117.596 312.349 119.978C325.034 123.903 337.361 131.064 348.533 137.996C349.88 138.831 366.467 148.806 364.999 150.557C363.544 152.292 347.261 140.442 343.631 138.4C335.887 134.041 328.785 128.885 320.249 126.007C311.41 123.025 302.062 121.845 292.768 121.926C291.575 121.937 287.684 121.105 287.6 122.87C287.518 124.596 293.956 123.696 295.091 123.706C299.78 123.749 304.498 124.19 309.121 125.003C317.781 126.525 325.924 129.592 333.341 134.296C331.272 139.108 326.31 141.327 321.105 140.123C316.607 139.082 312.222 136.514 307.817 135.772C304.783 135.261 301.745 135.565 298.804 136.42C291.044 138.675 286.569 143.295 278.037 140.081C271.349 137.562 260.163 128.511 266.553 120.972Z" fill="#F2F2F2"/>
<path fill-rule="evenodd" clip-rule="evenodd" d="M271.585 71.361H273.69C273.543 68.6897 273.351 66.0228 272.899 63.3814C271.207 53.4806 265.917 38.9388 254.313 37.3318C253.885 37.2719 252.31 37.2618 250.403 37.3725C249.499 36.8728 248.486 36.5706 247.419 36.5011C237.54 35.7805 226.507 43.6652 221.742 51.8703C217.9 58.4859 218.547 67.1729 220.92 74.2012C222.509 78.9066 225.977 85.6154 231.76 85.6807C238.995 85.7626 239.344 76.916 239.484 71.7443C239.67 64.8687 240.548 58.879 246.025 54.1924C247.301 53.1006 248.696 52.1401 249.986 51.0634C252.005 49.3782 254.236 47.6528 254.496 44.8649C254.855 41.0185 252.66 40.3264 249.309 41.0409C248.738 41.1626 242.984 43.7169 243.836 41.6979C244.096 41.0812 245.046 40.5924 246.245 40.2262C249.348 39.8925 253.048 39.5053 254.112 39.7366C265.593 42.2283 270.063 57.9605 271.25 67.956C271.384 69.0879 271.492 70.2236 271.585 71.361Z" fill="#F2F2F2"/>
<path fill-rule="evenodd" clip-rule="evenodd" d="M283.925 471.971C287.208 461.02 294.916 452.449 302.918 444.596C318.495 429.307 326.872 419.854 332.424 397.49C335.689 384.337 339.012 370.399 349.368 360.856C356.908 353.907 369.885 348.068 379.969 353.045C395.482 362.304 399.647 381.305 398.083 398.32C396.144 419.409 386.293 432.412 367.369 440.179C356.706 444.554 349.618 450.326 343.829 460.384C339.199 468.427 336.5 478.498 330.681 485.79C321.983 496.689 311.098 501.534 297.68 499.723C310.247 476.601 324.931 453.262 342.641 433.794C344.299 431.836 354.077 424.345 352.105 421.009C349.932 417.337 339.894 431.133 339.965 431.05C334.818 436.958 330.056 443.236 325.379 449.574C325.391 449.58 325.405 449.583 325.418 449.59C320.603 456.094 315.826 462.693 311.141 469.376C309.245 472.203 307.401 475.065 305.635 478C303.045 482.306 298.932 494.527 294.692 497.175C293.785 497.741 292.946 498.058 292.162 498.188C289.269 502.925 286.454 507.7 283.777 512.531C276.786 525.149 270.785 538.472 268.031 552.717C267.227 556.875 267.796 572.428 264.958 575.43C259.769 580.92 261.289 570.348 261.599 567.156C264.177 540.731 273.664 518.217 287.438 496.001C283.206 490.474 282.595 476.408 283.925 471.971Z" fill="#F2F2F2"/>
<path fill-rule="evenodd" clip-rule="evenodd" d="M461.652 484.739C456.182 478.293 443.031 477.2 434.988 477.631C425.036 478.165 414.813 480.588 405.345 483.517C389.747 488.342 374.591 497.148 360.854 505.671C359.199 506.698 338.804 518.963 340.609 521.115C342.398 523.248 362.419 508.679 366.881 506.168C376.403 500.808 385.136 494.469 395.631 490.93C406.499 487.264 417.992 485.813 429.42 485.913C430.887 485.926 435.671 484.903 435.774 487.073C435.875 489.195 427.959 488.088 426.563 488.101C420.798 488.154 414.997 488.696 409.314 489.695C398.665 491.567 388.654 495.338 379.533 501.122C382.078 507.039 388.179 509.767 394.578 508.286C400.109 507.006 405.501 503.849 410.917 502.936C414.647 502.308 418.382 502.682 421.999 503.733C431.54 506.505 437.042 512.186 447.532 508.234C455.756 505.137 469.509 494.009 461.652 484.739Z" fill="#F2F2F2"/>
<path fill-rule="evenodd" clip-rule="evenodd" d="M455.465 423.741H452.877C453.058 420.456 453.294 417.177 453.849 413.929C455.93 401.756 462.435 383.876 476.702 381.9C477.228 381.827 479.164 381.814 481.509 381.95C482.621 381.336 483.866 380.964 485.178 380.879C497.325 379.993 510.89 389.688 516.749 399.776C521.473 407.91 520.677 418.591 517.76 427.233C515.806 433.018 511.542 441.267 504.431 441.347C495.535 441.448 495.106 430.571 494.934 424.212C494.706 415.758 493.626 408.394 486.892 402.631C485.323 401.289 483.607 400.108 482.022 398.784C479.54 396.712 476.797 394.59 476.477 391.163C476.036 386.433 478.734 385.582 482.854 386.461C483.556 386.611 490.631 389.751 489.584 387.269C489.264 386.51 488.096 385.91 486.622 385.459C482.807 385.049 478.257 384.573 476.948 384.857C462.833 387.921 457.337 407.264 455.877 419.554C455.712 420.946 455.58 422.342 455.465 423.741H455.465Z" fill="#F2F2F2"/>
<path fill-rule="evenodd" clip-rule="evenodd" d="M192.101 275.587C189.431 266.68 183.162 259.709 176.654 253.322C163.985 240.888 157.171 233.2 152.656 215.011C150.001 204.313 147.298 192.977 138.876 185.216C132.743 179.564 122.189 174.815 113.987 178.863C101.37 186.393 97.9823 201.847 99.2546 215.686C100.832 232.837 108.843 243.413 124.235 249.731C132.907 253.288 138.672 257.983 143.38 266.164C147.146 272.705 149.341 280.896 154.073 286.826C161.148 295.69 170.001 299.631 180.914 298.158C170.693 279.353 158.75 260.37 144.347 244.537C142.998 242.945 135.046 236.852 136.65 234.139C138.417 231.152 146.581 242.373 146.523 242.305C150.709 247.11 154.582 252.216 158.386 257.371C158.376 257.376 158.365 257.379 158.354 257.384C162.27 262.674 166.155 268.042 169.966 273.476C171.508 275.775 173.008 278.104 174.444 280.49C176.551 283.993 179.895 293.933 183.344 296.086C184.082 296.547 184.764 296.804 185.402 296.91C187.754 300.763 190.044 304.646 192.221 308.575C197.907 318.837 202.788 329.673 205.028 341.259C205.682 344.641 205.219 357.291 207.527 359.732C211.748 364.197 210.511 355.598 210.259 353.003C208.163 331.51 200.447 313.2 189.244 295.131C192.685 290.636 193.182 279.196 192.101 275.587Z" fill="#F2F2F2"/>
<path fill-rule="evenodd" clip-rule="evenodd" d="M47.5529 285.972C52.0022 280.73 62.6979 279.84 69.2393 280.191C77.3337 280.625 85.6477 282.596 93.3485 284.978C106.034 288.903 118.361 296.064 129.533 302.996C130.88 303.831 147.467 313.806 145.999 315.557C144.544 317.292 128.261 305.442 124.631 303.4C116.887 299.041 109.785 293.885 101.249 291.007C92.4098 288.025 83.0621 286.845 73.7676 286.926C72.5747 286.937 68.6837 286.105 68.5998 287.87C68.5176 289.596 74.9557 288.696 76.0912 288.706C80.7802 288.749 85.4982 289.19 90.1207 290.003C98.7814 291.525 106.924 294.592 114.341 299.296C112.272 304.108 107.31 306.327 102.105 305.123C97.6068 304.082 93.2215 301.514 88.8167 300.772C85.783 300.261 82.7454 300.565 79.8036 301.42C72.0439 303.675 67.5685 308.295 59.0369 305.081C52.3485 302.562 41.163 293.511 47.5529 285.972Z" fill="#F2F2F2"/>
<path fill-rule="evenodd" clip-rule="evenodd" d="M52.5852 236.361H54.6901C54.5426 233.69 54.3505 231.023 53.8992 228.381C52.2071 218.481 46.9165 203.939 35.313 202.332C34.8849 202.272 33.3102 202.262 31.4028 202.372C30.4988 201.873 29.4861 201.571 28.4191 201.501C18.5399 200.781 7.50709 208.665 2.74167 216.87C-1.09993 223.486 -0.452759 232.173 1.92005 239.201C3.50899 243.907 6.97684 250.615 12.76 250.681C19.9953 250.763 20.3442 241.916 20.4841 236.744C20.6701 229.869 21.5483 223.879 27.0249 219.192C28.3013 218.101 29.6965 217.14 30.9857 216.063C33.0046 214.378 35.2356 212.653 35.4957 209.865C35.8547 206.019 33.6601 205.326 30.3091 206.041C29.7379 206.163 23.9838 208.717 24.8358 206.698C25.0958 206.081 26.0459 205.592 27.2449 205.226C30.3478 204.892 34.0481 204.505 35.1123 204.737C46.5929 207.228 51.0628 222.961 52.2499 232.956C52.3843 234.088 52.4917 235.224 52.5852 236.361Z" fill="#F2F2F2"/>
<path fill-rule="evenodd" clip-rule="evenodd" d="M308.081 173.29C311.528 185.992 316.02 214.544 311.436 219.022H282.436C282.433 218.971 282.43 218.92 282.427 218.868C271.679 217.679 263.319 208.566 263.319 197.5V176.5C263.319 164.626 272.945 155 284.819 155H286.819C297.602 155 306.531 162.939 308.081 173.29Z" fill="#191847"/>
<path fill-rule="evenodd" clip-rule="evenodd" d="M274.581 193.49C269.973 188.081 266.854 181.453 267.376 174.025C268.877 152.625 298.667 157.333 304.462 168.134C310.257 178.935 309.568 206.333 302.079 208.263C299.092 209.033 292.73 207.147 286.254 203.244L290.319 232H266.319L274.581 193.49Z" fill="#CBB09A"/>
<path fill-rule="evenodd" clip-rule="evenodd" d="M281.069 189.875C282.175 201.753 281.732 215.317 278.436 218.537H249.436C247.82 190.463 263.436 201.335 263.436 174.903C264.41 173.952 265.33 173.01 266.24 172.198L266.208 171.421C271.229 161.14 277.6 156 285.32 156C296.9 156 300.555 161.388 303.667 165.963C301.34 173.948 292.309 175.132 284.285 180.11C283.339 179.341 282.133 178.88 280.819 178.88C277.781 178.88 275.319 181.343 275.319 184.38C275.319 187.418 277.781 189.88 280.819 189.88C280.903 189.88 280.986 189.879 281.069 189.875Z" fill="#191847"/>
<path fill-rule="evenodd" clip-rule="evenodd" d="M227.727 413.088C251.716 419.798 272.413 423.153 289.818 423.153C307.224 423.153 323.39 417.986 338.319 407.653C314.843 400.766 295.51 397.323 280.319 397.323C265.128 397.323 247.597 402.578 227.727 413.088Z" fill="#003174"/>
<path fill-rule="evenodd" clip-rule="evenodd" d="M310.586 432.824C310.354 432.477 310.159 432.098 310.004 431.689C306.797 423.208 255.436 331.726 250.319 315H308.145C312.035 327.717 329.546 407.52 332.01 423.442C339.785 448.557 355.794 529.895 357.838 535.53C359.988 541.458 347.891 547.633 344.668 540.346C339.538 528.75 327.317 496.665 321.876 477.074C316.775 458.708 312.621 442.185 310.586 432.824Z" fill="#CBB09A"/>
<path fill-rule="evenodd" clip-rule="evenodd" d="M263.276 443.994C239.794 449.928 153.903 460.658 148.009 462.341C141.945 464.072 136.629 451.574 144.123 448.867C156.049 444.559 188.908 434.606 208.831 430.544C224.855 427.277 239.478 424.611 249.295 423.05C248.463 395.473 244.662 329.294 247.153 315H298.319C295.929 328.707 275.729 428.718 271.974 438.729C270.783 442.302 267.228 443.882 263.276 443.994Z" fill="#CBB09A"/>
<path fill-rule="evenodd" clip-rule="evenodd" d="M145.409 445.7C142.137 445.217 139.731 445.126 138.193 445.427C136.321 445.793 133.637 446.62 130.14 447.908C130.463 449.946 133.373 468.264 138.869 502.861C144.124 503.305 146.708 501.949 146.62 498.794C146.533 495.639 146.489 493.012 146.488 490.914L154.559 462.999C154.715 462.461 154.388 461.931 153.83 461.815C153.82 461.813 153.81 461.811 153.801 461.809L149.298 460.998C147.43 458.426 146.355 456.25 146.072 454.47C145.842 453.023 146.147 450.903 146.987 448.11L146.987 448.11C147.309 447.038 146.668 445.971 145.555 445.727C145.507 445.716 145.458 445.707 145.409 445.7Z" fill="#E4E4E4"/>
<path fill-rule="evenodd" clip-rule="evenodd" d="M340.997 539.402C339.878 542.388 339.319 544.623 339.319 546.106C339.319 547.909 339.619 550.54 340.22 554C342.312 554 361.113 554 396.622 554C398.087 549.154 397.241 546.539 394.084 546.152C390.926 545.766 388.302 545.417 386.214 545.106L359.999 533.419C359.494 533.194 358.903 533.421 358.678 533.925C358.674 533.934 358.671 533.942 358.667 533.951L356.982 538.039C354.059 539.403 351.683 540.085 349.855 540.085C348.37 540.085 346.32 539.485 343.703 538.285L343.703 538.285C342.699 537.825 341.512 538.266 341.052 539.27C341.032 539.313 341.014 539.357 340.997 539.402Z" fill="#E4E4E4"/>
<path fill-rule="evenodd" clip-rule="evenodd" d="M247.319 315C269.866 308.549 291.199 308.549 311.319 315C318.319 346.937 335.328 359.613 338.319 408.579C304.319 425.473 262.319 396.53 227.319 413.005C217.319 389.961 231.319 334.464 247.319 315Z" fill="#3F7FC2"/>
<path fill-rule="evenodd" clip-rule="evenodd" d="M344.319 275.311L383.802 269.925C391.7 265.532 398.966 262.558 405.599 261.003C407.466 260.948 410.436 261.627 406.012 265.315C401.588 269.003 397.099 273.083 397.887 275.051C398.676 277.02 402.79 276.287 403.471 279.315C403.926 281.333 397.249 281.661 383.44 280.299L351.403 293L344.319 275.311ZM220.289 284.45L242.186 284.532C218.175 338.566 205.655 366.857 204.627 369.406C202.313 375.14 207.209 383.874 209.303 388.567C202.483 391.619 203.21 380.317 194.607 384.319C186.754 387.973 180.78 394.592 171.708 388.994C170.592 388.306 169.37 385.715 172.323 383.69C179.681 378.645 190.284 369.815 191.717 366.908C193.67 362.945 203.194 335.459 220.289 284.45Z" fill="#CBB09A"/>
<path fill-rule="evenodd" clip-rule="evenodd" d="M280.268 215L297.413 216.142C301.636 254.343 324.635 278.473 376.13 270.304L382.971 319.499C334.842 325.719 292.632 306.45 283.981 254.278C281.742 240.773 279.974 226.718 280.268 215Z" fill="#AFB9C5"/>
<path fill-rule="evenodd" clip-rule="evenodd" d="M271.81 210.016L297.786 215.965C297.786 260.644 312.019 289.15 319.319 322H249.162C248.174 333.351 247.567 345.018 247.251 357H194.72C206.624 293.664 231.749 244.664 270.095 210H271.796L271.81 210.016Z" fill="#C5CFD6"/>
<path fill-rule="evenodd" clip-rule="evenodd" d="M260.231 258.259C258.423 286.101 259.487 307.347 263.421 322H249.162C251.12 299.514 254.575 278.267 260.231 258.259V258.259Z" fill="black" fill-opacity="0.1"/>
</svg>
