<svg width="633" height="516" viewBox="0 0 633 516" fill="none" xmlns="http://www.w3.org/2000/svg">
<path fill-rule="evenodd" clip-rule="evenodd" d="M561.226 100.121C560.792 99.7956 559.762 99.6802 559.282 99.5827C557.289 99.1779 555.237 99.0017 553.205 99.0017C546.94 99.0114 540.574 99.645 534.414 100.742C530.503 101.438 525.774 103.78 521.883 102.508C515.105 100.291 508.254 100.4 501.823 103.565C495.943 106.459 491.48 111.955 488.875 117.894C488.482 118.79 486.888 122.09 486.436 124.314C486.243 124.769 486.058 125.227 485.891 125.691C485.416 127.011 484.991 128.354 484.596 129.699C484.427 130.273 484.002 131.54 484.507 131.785C483.701 133.317 482.987 134.897 482.391 136.527C480.661 141.269 478.769 146.47 478.161 151.496C477.936 153.357 477.927 155.229 478.137 157.093C478.24 158.015 478.197 159.868 478.804 160.569C480.09 162.056 480.751 159.974 480.606 158.983C479.498 151.426 481.638 144.33 484.173 137.227C485.812 132.634 488.506 128.432 491.524 124.627C493.966 121.547 496.586 119.121 499.933 117.078C504.027 114.581 508.404 112.562 512.741 110.537C515.593 109.204 518.448 107.908 521.38 106.76C522.032 106.504 523.058 105.849 523.78 105.847C525.309 105.841 527.475 107.003 528.952 107.436C533.808 108.858 538.727 110.68 543.746 111.406C546.965 111.873 549.982 111.348 552.992 110.242C553.3 110.13 553.816 109.84 554.448 109.425C556.683 108.539 558.798 107.424 560.639 105.816C561.7 104.889 562.662 103.691 563.54 102.595C563.803 102.267 563.919 101.891 563.923 101.534C564.122 101.427 564.254 101.302 564.283 101.156C564.502 100.077 562.505 100.057 561.226 100.121Z" fill="#89C5CC"/>
<path fill-rule="evenodd" clip-rule="evenodd" d="M52.3369 190.067C51.1079 191.093 49.9025 192.14 48.7265 193.23C47.8303 194.061 46.2442 195.055 45.9224 196.313C45.588 197.621 46.6439 198.845 47.478 199.636C51.889 203.817 56.8559 206.644 62.9681 207.114C72.3795 207.838 80.5701 205.362 88.7356 200.489C94.4715 197.067 98.271 192.004 99.1008 185.168C105.932 188.093 112.538 192.125 118.153 197.073C120.923 199.515 123.309 202.22 125.516 205.218C126.929 207.139 128.296 209.091 129.565 211.118C130.117 211.998 130.677 213.56 131.588 214.067C132.657 214.663 133.949 213.729 133.896 212.505C133.852 211.486 132.784 210.303 132.284 209.47C131.455 208.087 130.613 206.712 129.726 205.366C128.291 203.188 126.809 201.04 125.191 199.002C121.557 194.422 116.933 190.638 112.139 187.411C102.942 181.221 92.8492 177.321 81.6591 176.991C74.7785 176.788 68.9902 179.21 63.1061 182.827C59.4428 185.079 55.6611 187.294 52.3369 190.067Z" fill="#DDE3E9"/>
<path fill-rule="evenodd" clip-rule="evenodd" d="M141.591 160.128C134.42 152.519 127.225 145.006 119.214 138.306C114.493 134.358 109.517 130.768 104.644 127.025C105.207 127.533 105.758 128.055 106.296 128.59C104.775 127.526 102.784 126.925 101.171 125.94C99.3727 124.841 97.6533 123.585 95.9667 122.318C92.6747 119.847 89.4321 117.328 86.0482 114.986C82.2779 112.376 78.3706 109.964 74.5362 107.453C71.2819 105.321 67.9879 102.988 64.5065 101.246C62.6091 100.296 60.7072 99.1701 58.8019 98.1795C58.1643 97.8481 51.6942 93.6386 51.7105 93.626C52.0681 93.3483 55.324 94.9246 55.8275 95.1366C57.2983 95.7556 58.7049 96.496 60.1191 97.2341C59.3429 95.6567 58.7285 93.9993 58.394 92.2548C58.2907 91.7163 57.4629 87.7964 57.8865 87.4675C58.0981 87.3032 60.1623 94.3166 60.268 94.991C60.3539 95.5387 60.3413 96.3274 60.5153 96.846C60.7962 97.6837 60.782 97.4307 61.4009 97.9026C62.5353 98.7675 64.041 99.3079 65.2687 100.031C65.9307 100.412 67.9804 101.922 69.215 102.352C72.9505 104.222 76.7369 107.098 80.2861 109.485C79.3547 107.681 78.6457 105.795 78.1288 103.819C78.0058 103.35 76.6792 99.1399 77.0011 98.89C77.3633 98.6088 79.891 105.038 80.0407 105.647C80.3188 106.777 80.3766 108.036 80.7248 109.136C81.1071 110.343 82.2997 110.771 83.3749 111.475C87.3301 114.064 91.1495 116.816 94.9053 119.693C99.0034 112.184 94.2782 103.115 90.2957 96.8144C87.4253 92.2734 83.5609 88.3801 79.4806 84.9813C74.0351 80.4451 67.8047 76.8213 61.5821 73.5065C54.3314 69.6442 46.4947 67.2511 38.3474 66.1456C34.0863 65.5673 29.7269 65.5834 25.4227 65.7689C23.32 65.8593 21.3019 66.1463 19.2869 66.8528C18.3787 67.1716 17.501 67.5734 16.6457 68.0233C15.9958 68.3652 14.4237 68.726 14.0501 69.2354C10.9743 73.3602 9.40073 77.4705 9.64103 82.6538C9.86825 87.5604 11.3722 92.4696 13.4133 96.8462C15.6864 101.72 18.6099 106.143 22.4333 109.855C25.3504 112.688 28.6117 115.153 31.8516 117.586C43.3746 126.238 57.9838 133.764 72.9082 131.83C77.7392 131.205 82.3341 129.464 86.6281 127.099C87.6399 126.541 88.6456 125.977 89.6007 125.319C90.2447 124.876 91.9662 122.876 92.6138 122.804C93.5016 122.704 95.4142 124.565 96.2472 125.131C102.577 129.437 108.741 133.975 114.776 138.697C121.197 143.722 127.303 149.087 133.229 154.706C135.75 157.095 138.254 159.49 140.702 161.96C141.271 162.535 142.664 164.651 143.698 164.747C144.351 164.808 144.791 164.233 144.698 163.61C144.536 162.527 142.325 160.906 141.591 160.128Z" fill="#C1DEE2"/>
<path fill-rule="evenodd" clip-rule="evenodd" d="M553.698 130.598C550.921 129.973 547.854 130.021 545.025 130.072C529.852 130.285 514.952 137.687 505.255 149.513C497 159.582 494.73 172.099 493.099 184.753C492.937 186.01 492.868 187.258 492.777 188.517C492.757 188.787 492.728 189.028 492.697 189.255C492.055 189.846 491.719 190.535 492.099 191.291C490.686 194.477 489.49 197.744 488.465 201.113C485.446 211.03 482.376 221.135 484.267 231.563C484.709 225.825 485.639 219.957 486.75 214.312C486.814 213.988 486.883 213.667 486.955 213.346C486.963 213.312 486.97 213.279 486.977 213.245C487.371 211.517 487.882 209.84 488.504 208.19C488.511 208.171 488.517 208.154 488.524 208.136C488.606 207.919 488.693 207.703 488.779 207.487C488.957 207.039 489.14 206.593 489.334 206.149C489.4 205.998 489.463 205.845 489.524 205.691C490.429 203.404 490.812 200.827 491.623 198.461C491.817 197.923 492.02 197.387 492.233 196.853C492.245 196.822 492.258 196.791 492.271 196.76C492.845 195.325 493.48 193.907 494.151 192.505C494.516 192.222 494.711 191.522 495.026 190.885C495.091 190.759 495.6 189.922 495.751 189.44C496.146 188.652 496.54 187.864 496.938 187.077C496.926 187.082 496.914 187.087 496.903 187.091C497.301 186.336 497.7 185.584 498.097 184.835C498.184 184.67 498.272 184.506 498.36 184.341C498.502 184.078 498.645 183.815 498.787 183.553C500.116 181.103 501.525 178.701 502.989 176.33C503.511 175.483 504.759 174.269 504.998 173.319C505.007 173.284 505.009 173.251 505.014 173.217C508.19 168.621 511.846 164.383 516.23 161.024C515.7 161.614 514.573 163.617 514.276 164.014C513.364 165.228 512.375 166.358 511.382 167.502C509.603 169.552 507.866 171.666 506.323 173.902C503.502 177.992 501.067 182.295 498.766 186.685C498.744 186.711 498.72 186.735 498.699 186.762C497.543 188.231 496.815 190.451 495.982 192.131C499.277 190.559 502.92 189.535 506.302 188.138C509.674 186.746 512.955 185.196 516.122 183.376C520.331 180.957 524.698 178.226 528.675 175.135C533.233 172.222 537.063 168.212 540.444 164.005C544.444 159.026 548.11 154.005 550.377 147.96C551.49 144.989 552.366 141.892 552.886 138.759C552.909 138.622 552.938 138.474 552.969 138.32C553.501 137.238 553.976 136.131 554.374 134.999C555.008 133.204 556.503 131.229 553.698 130.598Z" fill="#69A1AC"/>
<path fill-rule="evenodd" clip-rule="evenodd" d="M83.064 151.631C82.1939 150.66 81.2166 149.785 80.0692 149.16C79.7792 149.002 77.6184 147.944 77.4776 148.177C77.1498 148.717 82.8026 151.321 83.064 151.631ZM93.3088 145.147C93.3016 145.188 94.0509 146.498 94.2549 146.9C94.6891 147.757 95.0899 148.63 95.467 149.504C94.9087 147.959 94.3351 146.527 93.3088 145.147ZM40.9139 155.81C40.1923 156.049 39.3247 155.105 40.2607 154.873C41.018 154.686 40.9809 154.642 41.3209 154.014C41.5971 153.503 41.7672 152.881 42.0095 152.345C42.5235 151.209 43.1065 150.126 43.8222 149.11C45.3559 146.934 47.2247 145.059 49.3206 143.478C52.9784 140.721 57.0797 138.2 61.4303 136.934C68.3478 134.921 76.2209 134.796 83.1492 136.192C87.4401 137.057 91.3615 138.56 94.2107 142.119C95.6348 143.898 96.7526 145.982 97.2413 148.277C97.3688 148.877 97.345 149.544 97.5046 150.131C97.75 151.034 97.6417 150.794 98.6667 150.97C99.7859 151.162 100.904 151.357 102.022 151.556C104.949 152.078 107.894 152.632 110.746 153.479C111.685 153.757 112.603 154.098 113.5 154.493C114.178 154.792 116.879 155.731 117.207 156.639C117.754 158.149 115.923 157.465 115.354 157.136C114.856 156.847 114.344 156.578 113.825 156.331C112.519 155.708 111.157 155.226 109.765 154.842C108.26 154.427 106.725 154.118 105.195 153.808C103.769 153.519 102.337 153.256 100.904 153.005C100.108 152.866 99.3107 152.73 98.5137 152.594C98.2414 152.548 97.7612 152.305 97.7975 152.67C96.1219 152.337 94.3098 152.385 92.603 152.293C90.5124 152.181 88.4141 152.089 86.3166 152.156C84.8038 152.205 83.2896 152.307 81.7845 152.516C80.905 152.639 80.0395 152.818 79.1766 153.045C78.7026 153.169 76.8335 153.433 76.5753 153.859C76.6863 153.676 78.7491 153.854 79.0116 153.843C80.0618 153.803 81.1038 153.695 82.1501 153.575C84.0918 153.352 86.0343 153.235 87.982 153.252C87.9746 153.604 86.6441 154.232 86.3194 154.465C85.5912 154.989 84.8937 155.56 84.2431 156.186C83.0968 157.29 81.7243 158.657 80.9315 159.964C81.1652 159.579 82.3178 159.077 82.7269 158.783C83.3822 158.311 84.0242 157.808 84.6317 157.27C85.1924 156.773 85.7157 156.237 86.2303 155.689C86.7448 155.14 87.4432 154.001 88.1193 153.635C88.1601 153.613 88.4549 153.853 88.6223 153.772C88.791 153.69 89.0013 153.279 89.0442 153.262C89.6736 153.012 90.8689 153.323 91.5306 153.354C93.2465 153.436 94.9608 153.542 96.6756 153.64C97.2068 153.67 97.6582 153.545 97.8589 153.949C98.0726 154.38 97.6809 155.511 97.5694 155.98C97.156 157.722 96.4216 159.284 95.2657 160.634C93.101 163.161 90.4317 164.847 87.4162 165.974C75.866 170.291 63.5781 172.02 52.0313 167.529C47.251 165.67 40.0519 162.347 40.9139 155.81Z" fill="#89C5CC"/>
<g opacity="0.6">
<path opacity="0.6" fill-rule="evenodd" clip-rule="evenodd" d="M569.765 359.219C577.622 414.026 387.06 449.774 223.039 424.826C59.018 399.878 -16.2272 302.453 62.041 250.542C140.309 198.63 561.907 304.412 569.765 359.219Z" fill="#DDE3E9"/>
</g>
<path d="M234.514 0H118.071C114.474 0 111.557 3.00506 111.557 6.71199V246.665C111.557 250.372 114.474 253.377 118.071 253.377H234.514C238.112 253.377 241.029 250.372 241.029 246.665V6.71199C241.029 3.00506 238.112 0 234.514 0Z" fill="#F2F2F2"/>
<path d="M175.886 237.437C182.631 237.437 188.1 231.802 188.1 224.852C188.1 217.901 182.631 212.267 175.886 212.267C169.14 212.267 163.671 217.901 163.671 224.852C163.671 231.802 169.14 237.437 175.886 237.437Z" fill="white"/>
<path d="M165.3 16.7798C166.199 16.7798 166.929 16.0286 166.929 15.1018C166.929 14.1751 166.199 13.4238 165.3 13.4238C164.401 13.4238 163.671 14.1751 163.671 15.1018C163.671 16.0286 164.401 16.7798 165.3 16.7798Z" fill="white"/>
<path d="M186.471 13.4238H172.629C171.729 13.4238 171 14.1751 171 15.1018C171 16.0286 171.729 16.7798 172.629 16.7798H186.471C187.371 16.7798 188.1 16.0286 188.1 15.1018C188.1 14.1751 187.371 13.4238 186.471 13.4238Z" fill="white"/>
<path d="M226.371 23.4919H126.214C124.415 23.4919 122.957 24.9945 122.957 26.8479V65.4419C122.957 67.2953 124.415 68.7978 126.214 68.7978H226.371C228.17 68.7978 229.629 67.2953 229.629 65.4419V26.8479C229.629 24.9945 228.17 23.4919 226.371 23.4919Z" fill="white"/>
<path d="M211.714 37.0837H157.157C155.808 37.0837 154.714 38.2106 154.714 39.6007V41.3626C154.714 42.7527 155.808 43.8796 157.157 43.8796H211.714C213.063 43.8796 214.157 42.7527 214.157 41.3626V39.6007C214.157 38.2106 213.063 37.0837 211.714 37.0837Z" fill="#DDE3E9"/>
<path d="M192.171 48.4102H157.157C155.808 48.4102 154.714 49.5371 154.714 50.9272V52.689C154.714 54.0791 155.808 55.206 157.157 55.206H192.171C193.521 55.206 194.614 54.0791 194.614 52.689V50.9272C194.614 49.5371 193.521 48.4102 192.171 48.4102Z" fill="#DDE3E9"/>
<path d="M140.057 56.2129C145.454 56.2129 149.829 51.7053 149.829 46.1449C149.829 40.5845 145.454 36.0769 140.057 36.0769C134.661 36.0769 130.286 40.5845 130.286 46.1449C130.286 51.7053 134.661 56.2129 140.057 56.2129Z" fill="#C5CFD6"/>
<path d="M226.371 75.5098H126.214C124.415 75.5098 122.957 77.0123 122.957 78.8658V107.392C122.957 109.245 124.415 110.748 126.214 110.748H226.371C228.17 110.748 229.629 109.245 229.629 107.392V78.8658C229.629 77.0123 228.17 75.5098 226.371 75.5098Z" fill="white"/>
<path d="M211.714 86.0811H157.157C155.808 86.0811 154.714 87.208 154.714 88.598V88.8497C154.714 90.2398 155.808 91.3667 157.157 91.3667H211.714C213.063 91.3667 214.157 90.2398 214.157 88.8497V88.598C214.157 87.208 213.063 86.0811 211.714 86.0811Z" fill="#DDE3E9"/>
<path d="M192.171 94.8906H157.157C155.808 94.8906 154.714 96.0175 154.714 97.4076V97.6593C154.714 99.0494 155.808 100.176 157.157 100.176H192.171C193.521 100.176 194.614 99.0494 194.614 97.6593V97.4076C194.614 96.0175 193.521 94.8906 192.171 94.8906Z" fill="#DDE3E9"/>
<path d="M140.057 103.197C145.454 103.197 149.829 98.6892 149.829 93.1288C149.829 87.5684 145.454 83.0608 140.057 83.0608C134.66 83.0608 130.286 87.5684 130.286 93.1288C130.286 98.6892 134.66 103.197 140.057 103.197Z" fill="#C5CFD6"/>
<path d="M226.371 117.46H126.214C124.415 117.46 122.957 118.962 122.957 120.816V149.342C122.957 151.195 124.415 152.698 126.214 152.698H226.371C228.17 152.698 229.629 151.195 229.629 149.342V120.816C229.629 118.962 228.17 117.46 226.371 117.46Z" fill="white"/>
<path d="M211.714 128.031H157.157C155.808 128.031 154.714 129.158 154.714 130.548V130.8C154.714 132.19 155.808 133.317 157.157 133.317H211.714C213.063 133.317 214.157 132.19 214.157 130.8V130.548C214.157 129.158 213.063 128.031 211.714 128.031Z" fill="#DDE3E9"/>
<path d="M192.171 136.841H157.157C155.808 136.841 154.714 137.967 154.714 139.358V139.609C154.714 140.999 155.808 142.126 157.157 142.126H192.171C193.521 142.126 194.614 140.999 194.614 139.609V139.358C194.614 137.967 193.521 136.841 192.171 136.841Z" fill="#DDE3E9"/>
<path d="M140.057 145.147C145.454 145.147 149.829 140.639 149.829 135.079C149.829 129.518 145.454 125.011 140.057 125.011C134.66 125.011 130.286 129.518 130.286 135.079C130.286 140.639 134.66 145.147 140.057 145.147Z" fill="#AFB9C5"/>
<path d="M226.371 159.41H126.214C124.415 159.41 122.957 160.912 122.957 162.766V191.292C122.957 193.145 124.415 194.648 126.214 194.648H226.371C228.17 194.648 229.629 193.145 229.629 191.292V162.766C229.629 160.912 228.17 159.41 226.371 159.41Z" fill="white"/>
<path d="M211.714 169.981H157.157C155.808 169.981 154.714 171.108 154.714 172.498V172.75C154.714 174.14 155.808 175.267 157.157 175.267H211.714C213.063 175.267 214.157 174.14 214.157 172.75V172.498C214.157 171.108 213.063 169.981 211.714 169.981Z" fill="#DDE3E9"/>
<path d="M192.171 178.791H157.157C155.808 178.791 154.714 179.917 154.714 181.308V181.559C154.714 182.949 155.808 184.076 157.157 184.076H192.171C193.521 184.076 194.614 182.949 194.614 181.559V181.308C194.614 179.917 193.521 178.791 192.171 178.791Z" fill="#DDE3E9"/>
<path d="M140.057 187.097C145.454 187.097 149.829 182.589 149.829 177.029C149.829 171.468 145.454 166.961 140.057 166.961C134.66 166.961 130.286 171.468 130.286 177.029C130.286 182.589 134.66 187.097 140.057 187.097Z" fill="#C5CFD6"/>
<path fill-rule="evenodd" clip-rule="evenodd" d="M136.1 204.716C135.021 204.716 133.945 204.738 132.868 204.796C132.047 204.84 130.792 204.664 130.097 205.192C129.375 205.74 129.424 206.861 129.537 207.653C130.133 211.841 131.589 215.555 134.633 218.522C139.321 223.091 144.695 225.412 151.054 226.446C155.52 227.172 159.644 226.164 162.932 222.891C165.335 227.485 167.157 232.569 168.072 237.701C168.523 240.233 168.661 242.734 168.581 245.313C168.53 246.964 168.442 248.612 168.27 250.255C168.196 250.969 167.842 252.051 168.114 252.725C168.432 253.518 169.506 253.595 169.988 252.919C170.389 252.356 170.316 251.252 170.398 250.586C170.535 249.48 170.661 248.374 170.752 247.263C170.899 245.465 171.008 243.662 171 241.857C170.981 237.802 170.106 233.73 168.909 229.881C166.613 222.496 162.887 215.932 157.092 210.783C153.53 207.616 149.452 206.334 144.825 205.645C141.945 205.217 139.018 204.716 136.1 204.716Z" fill="#89C5CC"/>
<path fill-rule="evenodd" clip-rule="evenodd" d="M152.737 234.081C141.093 234.081 133.251 243.749 129.544 253.798C128.146 257.586 127.818 261.746 127.28 265.723C127.107 266.999 127.171 268.944 126.668 270.081C126.486 270.494 126.067 270.642 126.267 271.204C126.388 271.544 126.626 271.752 126.983 271.82C127.715 271.959 128.751 271.137 129.379 270.813C134.587 268.121 138.009 263.96 140.8 258.869C142.531 255.713 144.286 252.437 145.314 248.973C145.942 246.856 146.308 244.627 146.522 242.432C146.607 241.567 146.689 240.682 146.684 239.812C146.679 238.949 146.289 238.493 146.009 237.742C149.894 236.226 154.279 235.814 158.215 237.384C161.854 238.836 164.878 241.643 166.571 245.168C167.011 246.085 167.35 247.052 167.597 248.038C167.759 248.684 167.767 249.522 168.067 250.106C168.793 251.521 170.323 250.575 170.176 249.257C169.767 245.581 167.725 241.891 165.117 239.335C161.827 236.112 157.367 234.081 152.737 234.081Z" fill="#89C5CC"/>
<path d="M288.257 21.814H171.814C168.217 21.814 165.3 24.819 165.3 28.526V268.479C165.3 272.186 168.217 275.191 171.814 275.191H288.257C291.855 275.191 294.771 272.186 294.771 268.479V28.526C294.771 24.819 291.855 21.814 288.257 21.814Z" fill="#DDE3E9"/>
<path d="M229.629 259.251C236.374 259.251 241.843 253.616 241.843 246.666C241.843 239.715 236.374 234.081 229.629 234.081C222.883 234.081 217.414 239.715 217.414 246.666C217.414 253.616 222.883 259.251 229.629 259.251Z" fill="white"/>
<path d="M219.043 38.5938C219.942 38.5938 220.671 37.8425 220.671 36.9158C220.671 35.9891 219.942 35.2378 219.043 35.2378C218.143 35.2378 217.414 35.9891 217.414 36.9158C217.414 37.8425 218.143 38.5938 219.043 38.5938Z" fill="white"/>
<path d="M240.214 35.2378H226.371C225.472 35.2378 224.743 35.9891 224.743 36.9158C224.743 37.8425 225.472 38.5938 226.371 38.5938H240.214C241.114 38.5938 241.843 37.8425 241.843 36.9158C241.843 35.9891 241.114 35.2378 240.214 35.2378Z" fill="white"/>
<path d="M280.114 45.3059H179.957C178.158 45.3059 176.7 46.8084 176.7 48.6619V87.2558C176.7 89.1093 178.158 90.6118 179.957 90.6118H280.114C281.913 90.6118 283.371 89.1093 283.371 87.2558V48.6619C283.371 46.8084 281.913 45.3059 280.114 45.3059Z" fill="white"/>
<path d="M241.029 58.8977H186.472C185.122 58.8977 184.029 60.0246 184.029 61.4147V63.1766C184.029 64.5667 185.122 65.6936 186.472 65.6936H241.029C242.378 65.6936 243.472 64.5667 243.472 63.1766V61.4147C243.472 60.0246 242.378 58.8977 241.029 58.8977Z" fill="#DDE3E9"/>
<path d="M221.486 70.2241H186.472C185.122 70.2241 184.029 71.351 184.029 72.7411V74.503C184.029 75.8931 185.122 77.02 186.472 77.02H221.486C222.835 77.02 223.929 75.8931 223.929 74.503V72.7411C223.929 71.351 222.835 70.2241 221.486 70.2241Z" fill="#DDE3E9"/>
<path d="M271.972 73.8319C275.12 73.8319 277.672 71.2025 277.672 67.9589C277.672 64.7154 275.12 62.0859 271.972 62.0859C268.824 62.0859 266.272 64.7154 266.272 67.9589C266.272 71.2025 268.824 73.8319 271.972 73.8319Z" fill="#DDE3E9"/>
<path d="M271.971 70.4759C273.321 70.4759 274.414 69.349 274.414 67.9589C274.414 66.5688 273.321 65.4419 271.971 65.4419C270.622 65.4419 269.529 66.5688 269.529 67.9589C269.529 69.349 270.622 70.4759 271.971 70.4759Z" fill="#F2F2F2"/>
<path d="M280.114 97.3237H179.957C178.158 97.3237 176.7 98.8263 176.7 100.68V129.206C176.7 131.059 178.158 132.562 179.957 132.562H280.114C281.913 132.562 283.371 131.059 283.371 129.206V100.68C283.371 98.8263 281.913 97.3237 280.114 97.3237Z" fill="white"/>
<path d="M265.457 107.895H210.9C209.551 107.895 208.457 109.022 208.457 110.412V110.664C208.457 112.054 209.551 113.181 210.9 113.181H265.457C266.806 113.181 267.9 112.054 267.9 110.664V110.412C267.9 109.022 266.806 107.895 265.457 107.895Z" fill="#DDE3E9"/>
<path d="M245.914 116.705H210.9C209.551 116.705 208.457 117.831 208.457 119.222V119.473C208.457 120.863 209.551 121.99 210.9 121.99H245.914C247.263 121.99 248.357 120.863 248.357 119.473V119.222C248.357 117.831 247.263 116.705 245.914 116.705Z" fill="#DDE3E9"/>
<path d="M193.8 125.011C199.197 125.011 203.572 120.503 203.572 114.943C203.572 109.382 199.197 104.875 193.8 104.875C188.403 104.875 184.029 109.382 184.029 114.943C184.029 120.503 188.403 125.011 193.8 125.011Z" fill="#C5CFD6"/>
<path d="M280.114 139.274H179.957C178.158 139.274 176.7 140.776 176.7 142.63V171.156C176.7 173.009 178.158 174.512 179.957 174.512H280.114C281.913 174.512 283.371 173.009 283.371 171.156V142.63C283.371 140.776 281.913 139.274 280.114 139.274Z" fill="white"/>
<path d="M241.029 149.845H186.472C185.122 149.845 184.029 150.972 184.029 152.362V152.614C184.029 154.004 185.122 155.131 186.472 155.131H241.029C242.378 155.131 243.472 154.004 243.472 152.614V152.362C243.472 150.972 242.378 149.845 241.029 149.845Z" fill="#DDE3E9"/>
<path d="M221.486 158.655H186.472C185.122 158.655 184.029 159.781 184.029 161.172V161.423C184.029 162.813 185.122 163.94 186.472 163.94H221.486C222.835 163.94 223.929 162.813 223.929 161.423V161.172C223.929 159.781 222.835 158.655 221.486 158.655Z" fill="#AFB9C5"/>
<path d="M271.972 162.766C275.12 162.766 277.672 160.136 277.672 156.893C277.672 153.649 275.12 151.02 271.972 151.02C268.824 151.02 266.272 153.649 266.272 156.893C266.272 160.136 268.824 162.766 271.972 162.766Z" fill="#DDE3E9"/>
<path d="M271.971 159.409C273.321 159.409 274.414 158.283 274.414 156.892C274.414 155.502 273.321 154.375 271.971 154.375C270.622 154.375 269.529 155.502 269.529 156.892C269.529 158.283 270.622 159.409 271.971 159.409Z" fill="#F2F2F2"/>
<path d="M280.114 181.224H179.957C178.158 181.224 176.7 182.726 176.7 184.58V213.106C176.7 214.959 178.158 216.462 179.957 216.462H280.114C281.913 216.462 283.371 214.959 283.371 213.106V184.58C283.371 182.726 281.913 181.224 280.114 181.224Z" fill="white"/>
<path d="M265.457 191.795H210.9C209.551 191.795 208.457 192.922 208.457 194.312V194.564C208.457 195.954 209.551 197.081 210.9 197.081H265.457C266.806 197.081 267.9 195.954 267.9 194.564V194.312C267.9 192.922 266.806 191.795 265.457 191.795Z" fill="#DDE3E9"/>
<path d="M245.914 200.604H210.9C209.551 200.604 208.457 201.731 208.457 203.121V203.373C208.457 204.763 209.551 205.89 210.9 205.89H245.914C247.263 205.89 248.357 204.763 248.357 203.373V203.121C248.357 201.731 247.263 200.604 245.914 200.604Z" fill="#DDE3E9"/>
<path d="M193.8 208.911C199.197 208.911 203.572 204.403 203.572 198.843C203.572 193.282 199.197 188.775 193.8 188.775C188.403 188.775 184.029 193.282 184.029 198.843C184.029 204.403 188.403 208.911 193.8 208.911Z" fill="#C5CFD6"/>
<path d="M485.314 42.7888H225.557C221.959 42.7888 219.043 45.7939 219.043 49.5008V326.37C219.043 330.077 221.959 333.082 225.557 333.082H485.314C488.912 333.082 491.829 330.077 491.829 326.37V49.5008C491.829 45.7939 488.912 42.7888 485.314 42.7888Z" fill="#F2F2F2"/>
<path d="M472.286 78.8657H428.314C424.717 78.8657 421.8 81.8708 421.8 85.5777V140.113C421.8 143.82 424.717 146.825 428.314 146.825H472.286C475.883 146.825 478.8 143.82 478.8 140.113V85.5777C478.8 81.8708 475.883 78.8657 472.286 78.8657Z" fill="white"/>
<path d="M450.3 118.299C457.495 118.299 463.329 112.289 463.329 104.875C463.329 97.4608 457.495 91.4507 450.3 91.4507C443.105 91.4507 437.271 97.4608 437.271 104.875C437.271 112.289 443.105 118.299 450.3 118.299Z" fill="#DDE3E9"/>
<path d="M468.214 121.655H432.386C431.037 121.655 429.943 122.781 429.943 124.172C429.943 125.562 431.037 126.689 432.386 126.689H468.214C469.564 126.689 470.657 125.562 470.657 124.172C470.657 122.781 469.564 121.655 468.214 121.655Z" fill="#DDE3E9"/>
<path d="M461.7 130.045H438.9C437.551 130.045 436.457 131.172 436.457 132.562C436.457 133.952 437.551 135.079 438.9 135.079H461.7C463.049 135.079 464.143 133.952 464.143 132.562C464.143 131.172 463.049 130.045 461.7 130.045Z" fill="#DDE3E9"/>
<path fill-rule="evenodd" clip-rule="evenodd" d="M225.557 42.7888H485.314C488.912 42.7888 491.829 45.7939 491.829 49.5008V65.4418H219.043V49.5008C219.043 45.7939 221.959 42.7888 225.557 42.7888Z" fill="#C5CFD6"/>
<path d="M229.629 57.8907C231.427 57.8907 232.886 56.3882 232.886 54.5347C232.886 52.6812 231.427 51.1787 229.629 51.1787C227.83 51.1787 226.371 52.6812 226.371 54.5347C226.371 56.3882 227.83 57.8907 229.629 57.8907Z" fill="#F2F2F2"/>
<path d="M239.4 57.8907C241.199 57.8907 242.657 56.3882 242.657 54.5347C242.657 52.6812 241.199 51.1787 239.4 51.1787C237.601 51.1787 236.143 52.6812 236.143 54.5347C236.143 56.3882 237.601 57.8907 239.4 57.8907Z" fill="#F2F2F2"/>
<path d="M249.171 57.8907C250.97 57.8907 252.429 56.3882 252.429 54.5347C252.429 52.6812 250.97 51.1787 249.171 51.1787C247.373 51.1787 245.914 52.6812 245.914 54.5347C245.914 56.3882 247.373 57.8907 249.171 57.8907Z" fill="#F2F2F2"/>
<path d="M472.286 153.537H428.314C424.717 153.537 421.8 156.542 421.8 160.249V309.59C421.8 313.297 424.717 316.302 428.314 316.302H472.286C475.883 316.302 478.8 313.297 478.8 309.59V160.249C478.8 156.542 475.883 153.537 472.286 153.537Z" fill="white"/>
<path d="M460.886 168.639H439.714C437.915 168.639 436.457 170.141 436.457 171.995V187.097C436.457 188.95 437.915 190.453 439.714 190.453H460.886C462.685 190.453 464.143 188.95 464.143 187.097V171.995C464.143 170.141 462.685 168.639 460.886 168.639Z" fill="#DDE3E9"/>
<path d="M460.886 197.165H439.714C437.915 197.165 436.457 198.667 436.457 200.521V214.784C436.457 216.637 437.915 218.14 439.714 218.14H460.886C462.685 218.14 464.143 216.637 464.143 214.784V200.521C464.143 198.667 462.685 197.165 460.886 197.165Z" fill="#AFB9C5"/>
<path d="M460.886 224.852H439.714C437.915 224.852 436.457 226.354 436.457 228.208V242.471C436.457 244.324 437.915 245.827 439.714 245.827H460.886C462.685 245.827 464.143 244.324 464.143 242.471V228.208C464.143 226.354 462.685 224.852 460.886 224.852Z" fill="#DDE3E9"/>
<path d="M460.886 280.225H439.714C437.915 280.225 436.457 281.728 436.457 283.581V297.844C436.457 299.698 437.915 301.2 439.714 301.2H460.886C462.685 301.2 464.143 299.698 464.143 297.844V283.581C464.143 281.728 462.685 280.225 460.886 280.225Z" fill="#DDE3E9"/>
<path d="M460.886 252.539H439.714C437.915 252.539 436.457 254.041 436.457 255.895V270.158C436.457 272.011 437.915 273.514 439.714 273.514H460.886C462.685 273.514 464.143 272.011 464.143 270.158V255.895C464.143 254.041 462.685 252.539 460.886 252.539Z" fill="#C5CFD6"/>
<path d="M412.029 79.7048H235.329C233.53 79.7048 232.071 81.2074 232.071 83.0608V115.782C232.071 117.635 233.53 119.138 235.329 119.138H412.029C413.827 119.138 415.286 117.635 415.286 115.782V83.0608C415.286 81.2074 413.827 79.7048 412.029 79.7048Z" fill="white"/>
<path d="M372.943 91.5347H241.843C240.494 91.5347 239.4 92.6616 239.4 94.0517V94.9326C239.4 96.3227 240.494 97.4496 241.843 97.4496H372.943C374.292 97.4496 375.386 96.3227 375.386 94.9326V94.0517C375.386 92.6616 374.292 91.5347 372.943 91.5347Z" fill="#DDE3E9"/>
<path d="M328.235 101.393H241.843C240.494 101.393 239.4 102.52 239.4 103.91V104.791C239.4 106.181 240.494 107.308 241.843 107.308H328.235C329.584 107.308 330.678 106.181 330.678 104.791V103.91C330.678 102.52 329.584 101.393 328.235 101.393Z" fill="#DDE3E9"/>
<path d="M395.706 105.294C398.854 105.294 401.406 102.665 401.406 99.4213C401.406 96.1778 398.854 93.5483 395.706 93.5483C392.558 93.5483 390.006 96.1778 390.006 99.4213C390.006 102.665 392.558 105.294 395.706 105.294Z" fill="#DDE3E9"/>
<path d="M395.706 101.938C397.055 101.938 398.148 100.811 398.148 99.4213C398.148 98.0312 397.055 96.9043 395.706 96.9043C394.356 96.9043 393.263 98.0312 393.263 99.4213C393.263 100.811 394.356 101.938 395.706 101.938Z" fill="#F2F2F2"/>
<path d="M412.029 125.85H235.329C233.53 125.85 232.071 127.352 232.071 129.206V155.215C232.071 157.068 233.53 158.571 235.329 158.571H412.029C413.827 158.571 415.286 157.068 415.286 155.215V129.206C415.286 127.352 413.827 125.85 412.029 125.85Z" fill="white"/>
<path d="M373.004 135.666H241.782C240.466 135.666 239.4 136.765 239.4 138.12C239.4 139.475 240.466 140.574 241.782 140.574H373.004C374.319 140.574 375.386 139.475 375.386 138.12C375.386 136.765 374.319 135.666 373.004 135.666Z" fill="#DDE3E9"/>
<path d="M328.296 143.846H241.782C240.466 143.846 239.4 144.945 239.4 146.3C239.4 147.656 240.466 148.754 241.782 148.754H328.296C329.612 148.754 330.678 147.656 330.678 146.3C330.678 144.945 329.612 143.846 328.296 143.846Z" fill="#DDE3E9"/>
<path d="M395.706 148.083C398.854 148.083 401.406 145.454 401.406 142.21C401.406 138.967 398.854 136.337 395.706 136.337C392.558 136.337 390.006 138.967 390.006 142.21C390.006 145.454 392.558 148.083 395.706 148.083Z" fill="#DDE3E9"/>
<path d="M395.706 144.727C397.055 144.727 398.148 143.6 398.148 142.21C398.148 140.82 397.055 139.693 395.706 139.693C394.356 139.693 393.263 140.82 393.263 142.21C393.263 143.6 394.356 144.727 395.706 144.727Z" fill="#F2F2F2"/>
<path d="M412.029 165.283H235.329C233.53 165.283 232.071 166.785 232.071 168.639V194.648C232.071 196.501 233.53 198.004 235.329 198.004H412.029C413.827 198.004 415.286 196.501 415.286 194.648V168.639C415.286 166.785 413.827 165.283 412.029 165.283Z" fill="white"/>
<path d="M373.004 175.099H241.782C240.466 175.099 239.4 176.198 239.4 177.553C239.4 178.908 240.466 180.007 241.782 180.007H373.004C374.319 180.007 375.386 178.908 375.386 177.553C375.386 176.198 374.319 175.099 373.004 175.099Z" fill="#DDE3E9"/>
<path d="M328.296 183.279H241.782C240.466 183.279 239.4 184.378 239.4 185.733C239.4 187.088 240.466 188.187 241.782 188.187H328.296C329.612 188.187 330.678 187.088 330.678 185.733C330.678 184.378 329.612 183.279 328.296 183.279Z" fill="#DDE3E9"/>
<path d="M395.706 187.516C398.854 187.516 401.406 184.887 401.406 181.643C401.406 178.4 398.854 175.77 395.706 175.77C392.558 175.77 390.006 178.4 390.006 181.643C390.006 184.887 392.558 187.516 395.706 187.516Z" fill="#DDE3E9"/>
<path d="M395.706 184.16C397.055 184.16 398.148 183.033 398.148 181.643C398.148 180.253 397.055 179.126 395.706 179.126C394.356 179.126 393.263 180.253 393.263 181.643C393.263 183.033 394.356 184.16 395.706 184.16Z" fill="#AFB9C5"/>
<path d="M412.029 283.581H235.329C233.53 283.581 232.071 285.084 232.071 286.937V312.946C232.071 314.8 233.53 316.302 235.329 316.302H412.029C413.827 316.302 415.286 314.8 415.286 312.946V286.937C415.286 285.084 413.827 283.581 412.029 283.581Z" fill="white"/>
<path d="M373.004 293.397H241.782C240.466 293.397 239.4 294.496 239.4 295.852C239.4 297.207 240.466 298.306 241.782 298.306H373.004C374.319 298.306 375.386 297.207 375.386 295.852C375.386 294.496 374.319 293.397 373.004 293.397Z" fill="#DDE3E9"/>
<path d="M328.296 301.578H241.782C240.466 301.578 239.4 302.676 239.4 304.032C239.4 305.387 240.466 306.486 241.782 306.486H328.296C329.612 306.486 330.678 305.387 330.678 304.032C330.678 302.676 329.612 301.578 328.296 301.578Z" fill="#DDE3E9"/>
<path d="M395.706 305.815C398.854 305.815 401.406 303.185 401.406 299.942C401.406 296.698 398.854 294.069 395.706 294.069C392.558 294.069 390.006 296.698 390.006 299.942C390.006 303.185 392.558 305.815 395.706 305.815Z" fill="#DDE3E9"/>
<path d="M395.706 302.459C397.055 302.459 398.148 301.332 398.148 299.942C398.148 298.552 397.055 297.425 395.706 297.425C394.356 297.425 393.263 298.552 393.263 299.942C393.263 301.332 394.356 302.459 395.706 302.459Z" fill="#F2F2F2"/>
<path d="M412.029 244.148H235.329C233.53 244.148 232.071 245.651 232.071 247.504V273.513C232.071 275.367 233.53 276.869 235.329 276.869H412.029C413.827 276.869 415.286 275.367 415.286 273.513V247.504C415.286 245.651 413.827 244.148 412.029 244.148Z" fill="white"/>
<path d="M373.004 253.965H241.782C240.466 253.965 239.4 255.064 239.4 256.419C239.4 257.774 240.466 258.873 241.782 258.873H373.004C374.319 258.873 375.386 257.774 375.386 256.419C375.386 255.064 374.319 253.965 373.004 253.965Z" fill="#DDE3E9"/>
<path d="M328.296 262.145H241.782C240.466 262.145 239.4 263.244 239.4 264.599C239.4 265.954 240.466 267.053 241.782 267.053H328.296C329.612 267.053 330.678 265.954 330.678 264.599C330.678 263.244 329.612 262.145 328.296 262.145Z" fill="#DDE3E9"/>
<path d="M395.706 266.382C398.854 266.382 401.406 263.752 401.406 260.509C401.406 257.265 398.854 254.636 395.706 254.636C392.558 254.636 390.006 257.265 390.006 260.509C390.006 263.752 392.558 266.382 395.706 266.382Z" fill="#DDE3E9"/>
<path d="M395.706 263.026C397.055 263.026 398.148 261.899 398.148 260.509C398.148 259.119 397.055 257.992 395.706 257.992C394.356 257.992 393.263 259.119 393.263 260.509C393.263 261.899 394.356 263.026 395.706 263.026Z" fill="#F2F2F2"/>
<path d="M412.029 204.716H235.329C233.53 204.716 232.071 206.218 232.071 208.072V234.081C232.071 235.934 233.53 237.437 235.329 237.437H412.029C413.827 237.437 415.286 235.934 415.286 234.081V208.072C415.286 206.218 413.827 204.716 412.029 204.716Z" fill="white"/>
<path d="M373.004 214.532H241.782C240.466 214.532 239.4 215.63 239.4 216.986C239.4 218.341 240.466 219.44 241.782 219.44H373.004C374.319 219.44 375.386 218.341 375.386 216.986C375.386 215.63 374.319 214.532 373.004 214.532Z" fill="#DDE3E9"/>
<path d="M328.296 222.712H241.782C240.466 222.712 239.4 223.811 239.4 225.166C239.4 226.521 240.466 227.62 241.782 227.62H328.296C329.612 227.62 330.678 226.521 330.678 225.166C330.678 223.811 329.612 222.712 328.296 222.712Z" fill="#DDE3E9"/>
<path d="M395.706 226.949C398.854 226.949 401.406 224.32 401.406 221.076C401.406 217.833 398.854 215.203 395.706 215.203C392.558 215.203 390.006 217.833 390.006 221.076C390.006 224.32 392.558 226.949 395.706 226.949Z" fill="#DDE3E9"/>
<path d="M395.706 223.593C397.055 223.593 398.148 222.466 398.148 221.076C398.148 219.686 397.055 218.559 395.706 218.559C394.356 218.559 393.263 219.686 393.263 221.076C393.263 222.466 394.356 223.593 395.706 223.593Z" fill="#F2F2F2"/>
<path fill-rule="evenodd" clip-rule="evenodd" d="M559.402 185.734C556.191 183.49 551.92 182.902 548.076 182.902C533.064 182.902 518.953 188.64 506.763 197.191C500.084 201.877 494.109 207.843 488.833 214.056C485.788 217.642 483.073 221.521 481.151 225.836C479.854 228.748 478.964 231.782 478.36 234.912C477.625 238.726 477.041 242.618 476.776 246.495C476.672 248.022 475.811 256.125 478.275 256.262C478.261 256.462 478.258 256.652 478.273 256.823C472.923 265.442 469.617 275.544 466.552 285.121C463.885 293.456 461.508 301.86 459.965 310.482C457.934 321.833 456.6 333.355 455.966 344.87C455.83 347.344 455.736 349.82 455.655 352.298C455.587 354.412 455.518 356.525 455.451 358.639C455.376 361.007 454.971 363.734 455.336 366.089C455.655 368.139 457.377 367.829 457.453 365.788C457.545 363.324 457.53 360.855 457.635 358.389C457.774 355.116 457.917 351.843 458.073 348.571C459.155 325.841 463.215 303.445 470.707 281.974C473.739 273.285 477.213 265.06 481.679 257.023C485.604 249.956 490.327 243.114 495.154 236.742C499.846 230.55 504.723 224.502 510.472 219.255C515.137 214.998 520.268 211.289 525.543 207.838C532.243 203.456 538.929 199.179 546.186 195.815C549.959 194.066 553.802 192.5 557.604 190.822C558.288 190.52 559.021 190.227 559.679 189.878C561.874 188.712 561.151 186.955 559.402 185.734Z" fill="#C1DEE2"/>
<path fill-rule="evenodd" clip-rule="evenodd" d="M499.009 265.124C505.097 265.124 510.515 265.939 516.125 268.432C520.968 270.584 525.381 273.432 529.666 276.533C535.693 280.895 540.44 285.971 543.763 292.697C545.748 296.715 547.205 302.401 545.871 306.784C544.301 311.946 539.989 316.251 534.309 315.341C530.797 314.779 527.578 312.384 524.909 310.13C521.716 307.433 519.16 304.19 517.049 300.588C513.606 294.713 511.583 288.071 508.658 281.932C507.271 279.018 505.929 276.083 504.267 273.314C503.444 271.943 502.568 270.584 501.32 269.565C500.652 269.02 497.836 268.077 498.913 266.853C483.124 267.066 469.136 279.561 466.105 295.026C465.822 296.468 465.602 297.921 465.369 299.371C465.222 300.287 465.281 303.664 464.486 304.249C462.734 305.54 463.471 301.619 463.546 301.055C463.74 299.596 463.948 298.138 464.165 296.683C465.349 288.768 468.769 281.41 474.472 275.765C480.994 269.31 489.794 265.124 499.009 265.124Z" fill="#89C5CC"/>
<path fill-rule="evenodd" clip-rule="evenodd" d="M535.93 137.069C539.754 130.29 541.641 122.812 539.311 115.748C532.598 95.3968 500.736 109.751 496.871 122.171C493.007 134.592 500.236 161.051 508.981 160.476C512.468 160.246 519.066 156.323 525.312 150.398L527.6 179.738L554.165 171.868L535.93 137.069Z" fill="#CBB79A"/>
<path fill-rule="evenodd" clip-rule="evenodd" d="M524.91 138.226C529.44 142.811 534.832 145.701 539.176 144.469C547.427 142.128 550.76 130.451 548.036 119.686C547.941 119.308 547.837 118.935 547.727 118.566C557.83 121.526 567.268 130.332 578.817 127.055C594.529 122.597 593.491 92.0636 571.539 98.2924C556.61 102.529 549.766 106.588 544.177 111.305C542.121 108.465 539.538 106.32 536.736 105.105C536.031 104.692 535.035 104.388 533.799 104.195C533.037 104.051 532.267 103.976 531.495 103.974C527.356 103.785 521.6 104.455 515.375 106.012C514.213 106.302 513.078 106.613 511.977 106.94C510.622 101.664 504.818 98.7278 498.995 100.38C493.16 102.036 489.517 107.67 490.857 112.965C492.152 118.086 497.634 121.014 503.271 119.704C506.682 119.692 510.94 119.186 515.548 118.174C515.488 119.803 515.681 121.58 516.169 123.51C516.601 125.215 517.266 126.964 518.112 128.692C518.827 127.351 519.968 126.284 521.304 125.905C525.041 124.845 528.349 126.897 529.098 129.859C530.049 133.619 528.346 137.018 524.91 138.226Z" fill="#00214E"/>
<path fill-rule="evenodd" clip-rule="evenodd" d="M585.851 266.498L546.598 398.14L528.136 496.978H509.605L528.103 266.498H585.851Z" fill="#BA8B72"/>
<path fill-rule="evenodd" clip-rule="evenodd" d="M603.491 266.498C600.753 334.885 601.833 372.185 602.446 378.399C603.059 384.612 606.539 426.224 630.253 499.064H610.979C579.574 429.187 568.611 387.574 565.009 378.399C561.407 369.223 550.768 331.923 535.237 266.498H603.491Z" fill="#CBB79A"/>
<path fill-rule="evenodd" clip-rule="evenodd" d="M586.694 266.498C576.483 311.796 558.824 384.104 533.716 483.42H506.613C504.611 381.481 513.127 314.388 527.874 266.498H586.694Z" fill="#3F7FC2"/>
<path fill-rule="evenodd" clip-rule="evenodd" d="M603.628 266.498C600.946 334.885 607.898 402.259 629.431 484.485H600.513C569.05 415.651 546.5 348.609 531.088 266.498H603.628Z" fill="#7DA0D4"/>
<path fill-rule="evenodd" clip-rule="evenodd" d="M633 512.621L631.937 495.935C625.71 497.707 617.912 497.012 608.541 493.849C598.465 500.795 585.78 505.539 570.488 508.079L570.488 508.079C569.321 508.272 568.536 509.35 568.735 510.485C568.748 510.559 568.765 510.632 568.786 510.704L570.256 515.75H608.541H630.873L633 512.621Z" fill="#00214E"/>
<path fill-rule="evenodd" clip-rule="evenodd" d="M532.272 512.621L531.209 495.935C524.983 497.707 517.184 497.012 507.813 493.849C497.737 500.795 485.053 505.539 469.76 508.079L469.76 508.079C468.593 508.272 467.809 509.35 468.008 510.485C468.021 510.559 468.038 510.632 468.059 510.704L469.529 515.75H507.813H530.146L532.272 512.621Z" fill="#00214E"/>
<path fill-rule="evenodd" clip-rule="evenodd" d="M509.995 206.557L469.707 194.901C462.416 189.307 455.462 185.211 448.844 182.613C446.892 182.258 443.611 182.448 447.41 186.789C451.209 191.131 454.986 195.868 453.7 197.678C452.415 199.487 448.256 198.104 446.838 200.974C445.892 202.886 452.84 204.284 467.683 205.167L498.442 222.822L509.995 206.557ZM454.228 233.656L436.527 228.511C432.929 220.894 429.529 217.367 426.328 217.931C423.706 217.35 429.623 226.711 424.831 226.722C420.039 226.733 407.432 221.13 405.733 223.087C403.218 225.982 406.958 232.668 410.575 235.656C417.334 241.24 422.406 242.619 434.513 243.373C440.843 243.767 447.92 245.637 455.745 248.982L454.228 233.656Z" fill="#CBB79A"/>
<path fill-rule="evenodd" clip-rule="evenodd" d="M526.596 200.272C513.634 202.601 495.968 203.387 475.811 196.25L470.984 212.284C485.566 221.338 504.97 227.37 520.521 224.011C532.776 221.363 536.846 206.636 526.596 200.272Z" fill="#423FC2"/>
<path fill-rule="evenodd" clip-rule="evenodd" d="M513.655 228.731C500.251 234.629 476.294 235.344 441.784 230.876C436.164 248.002 434.194 259.819 435.875 266.326C466.177 274.49 491.248 275.9 511.164 272.471C512.289 283.49 515.395 293.582 521.738 302.128C534.779 319.697 589.848 290.475 609.914 290.265C616.21 251.231 590.203 240.877 586.401 217.411C582.237 191.714 553.554 156.455 550.273 157.088L520.343 162.861C521.856 182.809 517.031 206.044 513.655 228.731Z" fill="#002F74"/>
</svg>
