<svg width="520" height="578" viewBox="0 0 520 578" fill="none" xmlns="http://www.w3.org/2000/svg">
<path d="M406.233 44.2356L424.8 25.6556C427.924 22.5308 432.989 22.5297 436.114 25.6533C436.115 25.654 436.116 25.6548 436.116 25.6556L485.549 75.113C488.548 78.1134 490.233 82.1821 490.233 86.4244V414" stroke="#A1A3A2" stroke-width="8"/>
<path d="M516.233 413H463.233C461.576 413 460.233 414.343 460.233 416V417C460.233 418.657 461.576 420 463.233 420H516.233C517.89 420 519.233 418.657 519.233 417V416C519.233 414.343 517.89 413 516.233 413Z" fill="#D5D7D9"/>
<path fill-rule="evenodd" clip-rule="evenodd" d="M417.401 33.3345C430.288 46.2218 430.288 67.1163 417.401 80.0036L397.602 99.8026L350.933 53.1335L370.732 33.3345C383.619 20.4472 404.513 20.4472 417.401 33.3345Z" fill="#C5CFD6"/>
<path d="M370.461 80.5269C383.348 93.4142 395.853 101.804 398.391 99.2652C400.93 96.7268 392.54 84.2218 379.653 71.3345C366.766 58.4472 354.261 50.0578 351.722 52.5962C349.184 55.1346 357.573 67.6396 370.461 80.5269Z" fill="#E8DCD2"/>
<path fill-rule="evenodd" clip-rule="evenodd" d="M246 436H329H350V540H329V458H246V540H225V436H246Z" fill="#EA555A"/>
<path fill-rule="evenodd" clip-rule="evenodd" d="M256.738 267.49C261.346 262.081 264.464 255.453 263.943 248.025C262.442 226.625 232.651 231.333 226.857 242.134C221.062 252.935 221.75 280.333 229.24 282.263C232.226 283.033 238.589 281.147 245.065 277.244L241 306H265L256.738 267.49Z" fill="#CBB79A"/>
<path fill-rule="evenodd" clip-rule="evenodd" d="M216.224 227.16C216.721 225.413 218.058 223.918 219.86 223.474C220.296 223.366 220.748 223.323 221.197 223.341C221.358 223.347 221.404 223.394 221.479 223.281C221.535 223.198 221.536 222.993 221.559 222.895C221.631 222.59 221.72 222.288 221.831 221.994C222.208 220.992 222.841 220.105 223.605 219.357C225.033 217.959 226.963 216.994 228.968 216.82C230.066 216.724 231.155 216.903 232.193 217.26C232.73 217.444 233.251 217.675 233.758 217.929C233.911 218.006 234.406 218.381 234.559 218.356C234.729 218.33 235.069 217.909 235.207 217.803C236.908 216.498 239.009 215.985 241.128 216C243.52 216.018 245.823 216.138 247.818 217.596C248.241 217.904 248.643 218.242 249.026 218.598C249.228 218.786 249.423 218.98 249.609 219.183C249.722 219.305 249.831 219.43 249.936 219.558C250.115 219.776 250.086 219.847 250.337 219.695C251.297 219.112 252.409 218.839 253.53 218.977C254.195 219.059 254.843 219.258 255.458 219.521C255.667 219.611 256.151 219.968 256.374 219.971C256.596 219.975 257.073 219.644 257.301 219.56C258.533 219.105 259.86 218.993 261.154 219.203C262.489 219.42 263.8 219.952 264.931 220.688C265.475 221.043 265.95 221.435 266.331 221.961C266.496 222.188 266.644 222.429 266.831 222.64C266.94 222.763 267.156 222.89 267.215 223.046C267.18 222.952 268.675 222.376 268.816 222.339C269.568 222.143 270.333 222.183 271.069 222.425C272.453 222.88 273.643 223.902 274.621 224.949C275.123 225.487 275.563 226.081 275.936 226.715C276.115 227.018 276.279 227.33 276.428 227.649C276.501 227.803 276.549 227.996 276.644 228.135C276.768 228.315 276.85 228.318 277.073 228.396C278.206 228.793 279.238 229.465 280.025 230.372C280.82 231.29 281.336 232.421 281.552 233.612C281.565 233.682 281.573 233.972 281.614 234.01C281.67 234.063 281.898 234.04 281.984 234.05C282.282 234.085 282.579 234.137 282.871 234.206C283.41 234.333 283.934 234.521 284.43 234.767C286.364 235.724 287.747 237.517 288.424 239.536C289.135 241.655 289.122 244.082 288.273 246.161C288.136 246.496 287.973 246.822 287.781 247.131C287.664 247.32 287.626 247.32 287.702 247.519C287.787 247.74 287.943 247.954 288.044 248.17C288.374 248.875 288.604 249.622 288.75 250.385C288.989 251.637 289.108 252.952 288.872 254.214C288.762 254.799 288.572 255.372 288.281 255.893C288.132 256.159 287.958 256.412 287.762 256.645C287.661 256.766 287.553 256.882 287.439 256.993C287.375 257.056 287.29 257.111 287.235 257.182C287.101 257.355 287.073 257.213 287.142 257.466C287.239 257.82 287.458 258.169 287.592 258.514C287.731 258.869 287.856 259.229 287.97 259.592C288.202 260.328 288.398 261.077 288.521 261.84C288.756 263.303 288.715 264.862 288.023 266.205C287.727 266.779 287.302 267.283 286.787 267.675C286.535 267.867 286.262 268.032 285.976 268.168C285.829 268.238 285.641 268.268 285.574 268.41C285.501 268.563 285.609 268.867 285.633 269.038C285.846 270.526 285.953 272.089 285.51 273.547C285.103 274.891 284.206 276.077 283.041 276.862C280.781 278.385 277.735 278.299 275.361 277.08C274.742 276.762 274.163 276.367 273.647 275.902C272.331 277.672 269.625 277.616 267.703 277.112C265.308 276.483 263.386 274.818 262.279 272.63C260.765 274.473 257.588 273.875 256.538 271.876C256.281 271.386 256.129 270.847 256.054 270.301C256.014 270.014 256.039 269.725 256.01 269.44C255.972 269.077 255.73 268.725 255.59 268.374C255.319 267.691 255.151 266.985 255.143 266.249C255.14 265.864 255.188 265.489 255.225 265.108C255.258 264.764 255.163 264.444 255.108 264.105C255.723 264.206 256.471 264.041 257.05 263.863C257.617 263.688 258.149 263.228 258.55 262.807C259.481 261.831 260.049 260.551 260.438 259.278C261.292 256.483 260.942 253.129 258.13 251.595C256.82 250.88 252.897 250.883 251.337 251.236C249.696 251.607 247.837 255.226 247.745 255.567C247.689 255.777 247.717 256.038 247.524 256.178C247.099 256.486 246.398 255.951 246.084 255.687C245.543 255.231 245.157 254.624 244.823 254.009C244.095 252.67 243.508 251.233 243.093 249.766C242.773 248.636 242.569 247.47 242.151 246.368C241.735 245.271 241.08 244.291 240.06 243.67C238.952 242.994 237.681 242.638 236.464 242.214C235.257 241.793 234.071 241.279 233.136 240.386C232.93 240.189 232.731 239.981 232.565 239.75C232.435 239.567 232.305 239.218 232.106 239.102C231.797 238.922 231.345 239.39 231.077 239.56C229.757 240.399 228.655 241.568 227.767 242.846C226.883 244.117 226.158 245.339 225.569 246.758C225.132 247.811 224.859 249.159 224.091 250.021C223.748 250.406 221.197 250.639 220.371 250.303C219.545 249.967 218.619 249.094 218.342 248.547C218.058 247.987 217.99 247.371 218.111 246.758C218.183 246.398 218.328 246.061 218.408 245.707C218.475 245.409 218.536 245.128 218.681 244.855C218.955 244.339 219.424 243.967 219.99 243.812C219.401 243.269 218.914 242.62 218.576 241.895C218.226 241.141 217.928 240.224 217.844 239.396C217.776 238.724 217.881 238.028 218.249 237.45C218.635 236.844 219.319 236.449 219.911 236.071C219.007 235.364 218.233 234.504 217.598 233.552C216.361 231.701 215.596 229.368 216.224 227.16Z" fill="#00214E"/>
<path fill-rule="evenodd" clip-rule="evenodd" d="M129.491 551.66C142.303 523.301 151.57 498.608 155.289 485.58C161.657 463.272 166.502 443.643 167.727 436.313C170.647 418.832 145.265 417.814 141.91 426.502C136.832 439.651 127.967 482.853 117.315 548.107L129.491 551.66ZM278.112 462.663C266.356 458.017 225.188 443.475 205.333 439.361C199.627 438.179 194.097 437.081 188.898 436.088C173.444 433.138 165.437 461.017 180.321 463.159C217.388 468.494 269.937 474.003 274.434 474.621C280.737 475.488 285.5 465.584 278.112 462.663Z" fill="#CBB79A"/>
<path fill-rule="evenodd" clip-rule="evenodd" d="M179.413 428.416L243 396.047V389H235.438C173.92 404.676 142.485 414.722 141.131 419.138C141.117 419.185 141.103 419.233 141.091 419.281C141.06 419.321 141.03 419.362 141 419.403C128.808 436.17 121.507 518.027 119.111 524.156L142.472 527.641C151.409 494.503 180 471.418 179.241 431.729C179.446 430.565 179.497 429.461 179.413 428.416Z" fill="#003174"/>
<path fill-rule="evenodd" clip-rule="evenodd" d="M237.717 447.64C243.535 446.476 248.893 445.436 253.477 444.632C283.091 439.438 291.726 423.586 286.62 389L232.058 389C223.145 391.56 176.826 410.985 152.793 421.316C136.887 428.154 141.901 452.804 150.909 459.219C150.958 459.613 151.12 459.88 151.409 460C199.863 480.083 238.195 469.545 251 472.912L256.923 454.228L237.717 447.64Z" fill="#3F7FC2"/>
<path fill-rule="evenodd" clip-rule="evenodd" d="M274.092 459.694C277.267 459.997 279.521 460.474 280.853 461.124C282.474 461.915 284.707 463.338 287.554 465.395C286.636 467.275 278.395 484.173 262.829 516.089C257.831 515.282 255.851 513.375 256.888 510.367C257.925 507.359 258.761 504.849 259.397 502.835L260.385 474.15C260.404 473.598 260.867 473.166 261.419 473.185C261.428 473.185 261.438 473.186 261.447 473.186L265.86 473.464C268.367 471.434 270.021 469.598 270.823 467.955C271.474 466.62 271.833 464.514 271.902 461.637L271.902 461.637C271.929 460.533 272.846 459.659 273.95 459.685C273.997 459.686 274.045 459.689 274.092 459.694Z" fill="#E4E4E4"/>
<path fill-rule="evenodd" clip-rule="evenodd" d="M135.322 546.402C136.441 549.388 137 551.623 137 553.106C137 554.909 136.7 557.54 136.099 561C134.007 561 115.206 561 79.6969 561C78.2313 556.155 79.0773 553.539 82.2352 553.152C85.393 552.766 88.0163 552.417 90.105 552.106L116.32 540.419C116.824 540.194 117.416 540.421 117.641 540.925C117.644 540.934 117.648 540.942 117.652 540.951L119.337 545.039C122.26 546.403 124.636 547.085 126.463 547.085C127.948 547.085 129.999 546.485 132.616 545.286L132.616 545.285C133.62 544.825 134.807 545.266 135.267 546.27C135.287 546.313 135.305 546.357 135.322 546.402Z" fill="#E4E4E4"/>
<path fill-rule="evenodd" clip-rule="evenodd" d="M184.956 373.123L156.628 400.758C148.385 404.273 141.632 408.156 136.367 412.404C135.183 413.832 133.895 416.568 139.465 415.344C145.035 414.12 150.949 413.082 151.996 414.894C153.043 416.705 149.958 419.481 151.893 421.852C153.183 423.432 157.521 418.405 164.907 406.77L194.364 389.403L184.956 373.123ZM310.692 377.02L289.795 377.102C302.698 418.756 309.664 440.857 310.692 443.406C313.006 449.14 308.109 457.874 306.015 462.567C312.835 465.619 312.109 454.317 320.712 458.32C328.565 461.973 334.538 468.593 343.611 462.994C344.726 462.306 345.949 459.715 342.995 457.69C335.638 452.645 325.035 443.815 323.602 440.908C321.648 436.945 317.345 415.649 310.692 377.02Z" fill="#CBB79A"/>
<path fill-rule="evenodd" clip-rule="evenodd" d="M251.305 289.332L242.658 287.849C227.77 325.039 201.778 358.831 164.682 389.225L192.714 423.281C229.806 380.005 252.67 335.355 251.305 289.332Z" fill="#00214E"/>
<path fill-rule="evenodd" clip-rule="evenodd" d="M289 398H212C229.839 354.625 238.759 317.779 238.759 287.461L261.986 284C280.24 313.358 285.395 349.505 289 398Z" fill="#D3D1D1"/>
<path fill-rule="evenodd" clip-rule="evenodd" d="M262.478 284.016C262.475 284.011 262.471 284.005 262.468 284H260.952C259.138 284.062 256.375 284.175 252.662 284.338L247.05 300.377C246.456 319.932 242.989 359.342 236.649 418.606H287.124C286.992 422.699 286.773 426.83 286.469 431H324C318.386 367.664 297.885 318.664 262.496 284L262.478 284.016V284.016Z" fill="#003174"/>
<path fill-rule="evenodd" clip-rule="evenodd" d="M283.79 366.233C282.353 391.748 278.757 409.337 273 419H287.111C287.729 400.643 286.622 383.054 283.79 366.233V366.233Z" fill="black" fill-opacity="0.1"/>
<path fill-rule="evenodd" clip-rule="evenodd" d="M275.889 388L251 376.429V388H275.889Z" fill="white" fill-opacity="0.2"/>
<g opacity="0.5">
<path opacity="0.5" fill-rule="evenodd" clip-rule="evenodd" d="M3.38467 174.672C3.38084 183.278 2.98676 192.064 4.42319 200.567C4.85814 203.142 5.20112 208.073 7.66075 209.409C10.1312 210.75 12.5263 209.243 13.1401 206.446C13.8561 203.193 12.2856 198.324 12.1265 194.908C11.9081 190.242 11.8934 185.57 11.8915 180.898C11.8902 177.524 12.8955 172.097 9.28878 170.361C6.6069 169.07 3.38467 171.47 3.38467 174.672Z" fill="#B8C9DD"/>
<path opacity="0.5" fill-rule="evenodd" clip-rule="evenodd" d="M126.603 161.059C100.78 163.921 74.5846 164.516 48.6682 166.009C36.6882 166.698 22.2102 165.818 10.9238 170.939C8.82884 171.89 1.32223 177.183 7.41604 179.338C9.31553 180.01 11.245 177.75 12.8047 176.993C15.4023 175.734 18.4093 175.344 21.1793 174.852C44.7287 170.676 69.3607 171.403 93.1522 169.452C99.2486 168.952 105.347 168.437 111.431 167.776C115.777 167.304 124.913 163.844 128.924 165.614C135.778 168.637 135.617 188.281 135.753 195.037C135.823 198.531 132.752 211.073 138.857 209.801C143.743 208.783 141.974 195.754 141.593 192.19C140.594 182.848 138.889 159.684 126.603 161.059Z" fill="#B8C9DD"/>
<path opacity="0.5" fill-rule="evenodd" clip-rule="evenodd" d="M136.126 209.348C113.695 211.585 90.7483 209.39 68.2259 210.27C56.4202 210.732 44.6267 211.466 32.8197 211.896C27.7134 212.083 22.6019 212.091 17.4929 212.131C15.0493 212.149 3.92891 213.785 10.8083 219.135C13.8543 221.504 23.5612 219.596 27.0561 219.549C32.3056 219.481 37.5525 219.24 42.7981 219.013C54.9493 218.489 67.0929 217.762 79.2505 217.399C90.8799 217.051 102.515 216.976 114.144 216.629C119.93 216.455 125.796 216.259 131.53 215.326C132.824 215.116 137.028 214.949 137.926 213.355C138.776 211.848 138.179 209.13 136.126 209.348Z" fill="#3F7FC2"/>
<path opacity="0.5" fill-rule="evenodd" clip-rule="evenodd" d="M25.8856 190.752C25.7649 191.067 25.7649 191.067 25.8856 190.752V190.752ZM35.5989 187.492C35.9534 187.658 35.9534 187.658 35.5989 187.492V187.492ZM35.1442 187.401C40.3789 193.293 32.3288 200.326 27.4255 194.576C22.2208 188.473 31.7744 187.421 35.1442 187.401ZM29.5926 178.488C11.5622 182.031 17.946 208.566 34.7859 204.731C42.1788 203.048 46.4069 194.823 43.8624 186.923C42.8679 183.837 40.7015 180.449 37.6836 179.476C36.1788 178.991 34.8478 179.754 33.4146 179.576C32.0478 179.406 31.289 178.15 29.5926 178.488Z" fill="#B8C9DD"/>
<path opacity="0.5" fill-rule="evenodd" clip-rule="evenodd" d="M98.5967 185.956C87.7241 185.994 76.849 186.504 65.9784 186.732C62.6438 186.801 54.0737 185.153 54.0603 190.958C54.0456 197.161 63.5922 194.87 66.7691 194.786C77.5522 194.502 88.3628 193.98 99.1032 192.846C101.816 192.56 111.208 193.054 111.198 188.98C111.188 184.664 100.787 185.956 98.5967 185.956Z" fill="#B8C9DD"/>
<path opacity="0.5" fill-rule="evenodd" clip-rule="evenodd" d="M124.565 226.44C97.6746 227.236 70.825 227.514 43.9563 229.034C33.9064 229.602 23.8699 230.025 13.8053 230.025C11.8669 230.025 7.96381 229.196 6.13969 230.544C1.18851 234.2 6.82629 237.338 10.053 237.536C32.1257 238.889 54.5178 235.522 76.5778 234.762C89.4922 234.317 102.41 234.186 115.317 233.46C118.838 233.262 122.36 233.033 125.875 232.731C127.896 232.558 133.243 233.033 134.877 231.727C142.011 226.024 126.97 226.368 124.565 226.44Z" fill="#3F7FC2"/>
<path opacity="0.5" fill-rule="evenodd" clip-rule="evenodd" d="M1.18795 240.958C0.935025 248.657 0.908839 256.221 1.8209 263.878C2.17985 266.891 2.34463 270.309 5.54259 271.075C8.44674 271.77 9.91958 269.344 10.5212 266.655C11.9896 260.087 10.6975 250.634 10.6803 243.812C10.6726 240.439 10.6694 236.663 6.89471 235.9C4.01482 235.318 1.29781 237.616 1.18795 240.958Z" fill="#3F7FC2"/>
<path opacity="0.5" fill-rule="evenodd" clip-rule="evenodd" d="M153.067 259.519C109.539 262.052 66.0673 264.263 22.5075 266.296C19.1103 266.455 -7.28003 266.138 1.94595 276.3C4.79581 279.439 12.1376 277.313 15.8229 277.114C21.3611 276.813 26.9018 276.583 32.4399 276.272C54.3977 275.038 76.4123 274.705 98.3534 273.32C110.428 272.558 122.475 271.365 134.486 269.812C140.2 269.074 147.292 269.15 152.643 266.678C155.395 265.406 158.366 259.208 153.067 259.519Z" fill="#3F7FC2"/>
<path opacity="0.5" fill-rule="evenodd" clip-rule="evenodd" d="M128.039 220.465C124.729 224.106 126.431 231.288 126.681 235.788C127.024 241.98 127.441 248.176 128.141 254.334C128.596 258.335 128.355 264.561 130.288 268.016C132.551 272.063 137.534 271.615 139.58 267.706C141.39 264.248 140.475 256.973 140.427 253.142C140.363 247.843 140.064 242.537 139.779 237.249C139.541 232.829 140.448 225.746 138.246 221.964C136.009 218.12 131.141 217.058 128.039 220.465Z" fill="#3F7FC2"/>
<path opacity="0.5" fill-rule="evenodd" clip-rule="evenodd" d="M28.546 248.717C28.1577 249.048 28.1577 249.048 28.546 248.717V248.717ZM36.2775 247.648C43.4916 249.25 31.8264 258.551 28.1398 252.167C27.5644 251.17 27.2648 249.944 28.189 249.077C29.0327 248.285 29.5628 249.687 30.3599 249.31C31.7325 248.661 34.8129 247.587 36.2775 247.648ZM35.2824 240.012C30.3574 240.442 23.5853 240.778 21.1474 246.23C17.8721 253.553 23.4735 260.725 29.9531 261.839C36.1887 262.911 45.499 259.097 45.9978 251.066C46.4002 244.591 40.8231 239.515 35.2824 240.012Z" fill="#3F7FC2"/>
<path opacity="0.5" fill-rule="evenodd" clip-rule="evenodd" d="M76.402 243.884C71.3033 243.975 61.2815 242.31 56.8393 245.054C52.4438 247.77 54.404 252.605 58.4137 253.762C61.0643 254.527 65.396 253.293 68.1558 253.169C71.7855 253.006 75.4184 252.971 79.0507 252.915C85.1592 252.825 91.2651 252.901 97.3742 252.901C103.614 252.901 109.96 253.089 116.188 252.583C124.069 251.942 123.857 245.426 116.15 244.611C103.057 243.227 89.5374 243.656 76.402 243.884Z" fill="#3F7FC2"/>
<path opacity="0.5" fill-rule="evenodd" clip-rule="evenodd" d="M63.3779 316.867C63.3779 319.963 65.8657 316.867 65.8478 316.867C65.8657 316.867 63.3779 313.771 63.3779 316.867Z" fill="#3F7FC2"/>
<path opacity="0.5" fill-rule="evenodd" clip-rule="evenodd" d="M7.10582 291.944C7.26614 300.943 7.37152 309.951 7.71961 318.944C7.83011 321.787 7.09241 327.34 10.2137 328.79C13.6876 330.403 14.7676 326.381 15.1681 323.656C16.4353 315.021 15.193 305.163 15.071 296.426C15.0301 293.493 15.605 289.409 12.5878 287.946C10.1269 286.753 7.056 288.968 7.10582 291.944Z" fill="#3F7FC2"/>
<path opacity="0.5" fill-rule="evenodd" clip-rule="evenodd" d="M141.128 292.085C141.334 292.621 141.334 292.621 141.128 292.085V292.085ZM141.419 291.993C141.585 292.071 142.26 292.383 141.419 291.993V291.993ZM75.5817 284.72C63.0703 284.936 50.5512 285.1 38.048 285.692C32.7117 285.945 27.3141 286.148 21.9963 286.704C18.2299 287.097 8.87299 287.261 6.42997 290.66C1.38873 297.676 12.0792 295.763 14.3817 295.193C18.5722 294.155 22.8496 293.823 27.1308 293.574C36.42 293.033 45.713 292.743 55.0137 292.537C80.2353 291.976 105.475 292.061 130.702 291.936C133.144 291.924 137.558 290.839 139.814 291.93C142.074 293.024 141.946 295.712 142.181 298.834C142.494 302.986 140.013 310.9 141.903 314.394C144.835 319.812 149.098 315.211 149.75 311.261C150.65 305.802 149.223 299.248 147.826 294.03C145.855 286.669 143.118 286.376 136.67 285.801C129.136 285.129 121.63 284.721 114.072 284.644C101.245 284.514 88.408 284.5 75.5817 284.72Z" fill="#3F7FC2"/>
<path opacity="0.5" fill-rule="evenodd" clip-rule="evenodd" d="M125.066 321.921C97.9294 325.401 70.0209 323.351 42.7396 323.473C36.1054 323.504 29.4656 323.562 22.8378 323.917C19.3371 324.104 11.0391 323.039 8.64083 326.02C3.58554 332.307 12.6921 333.222 16.0165 332.961C22.7382 332.434 29.4758 332.193 36.2147 332.135C59.9512 331.933 83.8219 333.156 107.539 331.863C117.475 331.321 127.19 329.444 136.942 327.347C139.103 326.882 153.893 323.777 145.459 320.055C140.475 317.856 130.302 321.246 125.066 321.921Z" fill="#3F7FC2"/>
<path opacity="0.5" fill-rule="evenodd" clip-rule="evenodd" d="M45.8349 310.413C45.6458 310.682 45.6458 310.682 45.8349 310.413V310.413ZM45.6529 310.367C45.5884 310.56 45.3891 311.035 45.6529 310.367V310.367ZM43.9412 307.929C43.9808 307.985 44.1423 308.213 43.9412 307.929V307.929ZM43.8754 307.911C44.5288 308.772 44.9688 309.733 45.1949 310.793C39.5725 312.474 37.406 307.452 43.8754 307.911ZM43.5196 307.675C43.5215 307.677 44.3122 308.044 43.5196 307.675V307.675ZM34.2834 300.193C30.6448 305.197 27.641 311.028 32.1776 316.744C36.234 321.854 44.3953 322.513 49.5432 319.102C54.8463 315.586 54.3883 308.185 50.689 303.355C48.3073 300.245 46.3765 300.331 42.9205 299.823C40.5676 299.477 36.28 297.457 34.2834 300.193Z" fill="#3F7FC2"/>
<path opacity="0.5" fill-rule="evenodd" clip-rule="evenodd" d="M71.8987 309.454C71.8987 316.117 97.9531 313.249 102.588 313.242C106.471 313.236 129.948 315.601 128.263 308.744C126.878 303.11 103.753 305.91 98.8281 305.902C94.5712 305.895 71.8987 302.668 71.8987 309.454Z" fill="#3F7FC2"/>
</g>
</svg>
